<svg width="161" height="136" viewBox="0 0 161 136" fill="none" xmlns="http://www.w3.org/2000/svg">
<g id="Arrow">
<path id="Vector 1" d="M124.928 134.288C126.744 135.985 129.592 135.888 131.288 134.072L158.935 104.476C160.632 102.66 160.535 99.8122 158.718 98.1157C156.902 96.4192 154.055 96.5161 152.358 98.3323L127.783 124.64L101.476 100.065C99.6598 98.3684 96.8122 98.4654 95.1157 100.282C93.4192 102.098 93.5161 104.945 95.3323 106.642L124.928 134.288ZM1.0474 9.50528C20.7338 9.29789 50.6286 15.1518 75.9075 33.31C100.977 51.318 121.816 81.6295 123.503 131.153L132.497 130.847C130.716 78.5411 108.499 45.64 81.1582 26.0004C54.0262 6.51108 22.1547 0.282418 0.952596 0.505777L1.0474 9.50528Z" fill="#FAAF32"/>
</g>
</svg>
