<svg width="167" height="194" viewBox="0 0 167 194" fill="none" xmlns="http://www.w3.org/2000/svg">
<g id="Arrow">
<path id="Vector 1" d="M78.9648 190.3C79.5825 192.708 82.0347 194.158 84.442 193.541L123.671 183.475C126.079 182.857 127.529 180.405 126.912 177.998C126.294 175.591 123.842 174.14 121.435 174.758L86.5641 183.705L77.6169 148.834C76.9992 146.427 74.547 144.976 72.1397 145.594C69.7324 146.211 68.2816 148.664 68.8993 151.071L78.9648 190.3ZM80.6896 7.86965C93.0297 15.2369 108.539 33.0045 113.126 62.3395C117.707 91.6353 111.431 132.836 79.4507 186.891L87.1966 191.473C119.915 136.17 127.008 92.8617 122.018 60.949C117.034 29.0754 100.03 8.93417 85.3031 0.142069L80.6896 7.86965Z" fill="#FAAF32"/>
</g>
</svg>
