<?xml version="1.0" encoding="UTF-8"?>
<svg id="Layer_1" data-name="Layer 1" xmlns="http://www.w3.org/2000/svg" viewBox="0 0 235 56">
  <g id="Group_4" data-name="Group 4">
    <rect id="Rectangle_7" data-name="Rectangle 7" x="2.8" y="7.7" width="45.3" height="45.3" rx="13" ry="13" style="fill: none; stroke: #fff; stroke-width: 6px;"/>
    <line id="Line_1" data-name="Line 1" x1="2.9" y1="21.9" x2="48" y2="21.9" style="fill: none; stroke: #fff; stroke-width: 6px;"/>
    <g id="Group_2" data-name="Group 2">
      <line id="Line_2" data-name="Line 2" x1="16" y1="3" x2="16" y2="11" style="fill: none; stroke: #fff; stroke-linecap: round; stroke-width: 6px;"/>
      <line id="Line_3" data-name="Line 3" x1="36.2" y1="3" x2="36.2" y2="11" style="fill: none; stroke: #fff; stroke-linecap: round; stroke-width: 6px;"/>
    </g>
  </g>
  <g>
    <path d="M79,45.8c-9.9,0-17.3-7.8-17.3-17.4s7-17.5,17.3-17.5,9.2,1.7,12.1,5.5l-4.7,3.9c-2-2.1-4.4-3.2-7.4-3.2-6.7,0-10.3,5.1-10.3,11.3s4,11.2,10.3,11.2,5.5-1.1,7.5-3.2l4.7,4.1c-2.8,3.7-6.7,5.3-12.2,5.3Z" style="fill: #fff; stroke-width: 0px;"/>
    <path d="M111.6,20.2h6.4v25h-6.4v-3.7c-1.3,2.6-3.5,4.3-7.8,4.3-6.8,0-12.2-5.9-12.2-13.1s5.4-13.1,12.2-13.1,6.4,1.7,7.8,4.3v-3.9.2ZM111.8,32.8c0-3.9-2.7-7.2-6.9-7.2s-6.7,3.3-6.7,7.2,2.7,7.2,6.7,7.2,6.9-3.3,6.9-7.2Z" style="fill: #fff; stroke-width: 0px;"/>
    <path d="M122.5,10.1h6.4v35.1h-6.4s0-35.1,0-35.1Z" style="fill: #fff; stroke-width: 0px;"/>
    <path d="M131.7,41.9c0-2.1,1.6-3.8,3.9-3.8s3.8,1.7,3.8,3.8-1.6,3.9-3.8,3.9-3.9-1.7-3.9-3.9Z" style="fill: #fff; stroke-width: 0px;"/>
    <path d="M163.8,41.2c-2.4,2.9-6,4.7-10.2,4.7-7.6,0-13.2-5.9-13.2-13.1s5.6-13.1,13.2-13.1,7.7,1.7,10,4.5l-4.9,4.1c-1.2-1.5-2.8-2.7-5.1-2.7-4.1,0-6.7,3.3-6.7,7.2s2.7,7.2,6.7,7.2,4.2-1.3,5.4-3l4.8,4.3v-.1Z" style="fill: #fff; stroke-width: 0px;"/>
    <path d="M164.3,32.8c0-7.2,5.6-13.1,13.2-13.1s13.2,5.9,13.2,13.1-5.6,13.1-13.2,13.1-13.2-5.9-13.2-13.1ZM184.3,32.8c0-3.9-2.7-7.2-6.7-7.2s-6.7,3.2-6.7,7.2,2.7,7.2,6.7,7.2,6.7-3.3,6.7-7.2Z" style="fill: #fff; stroke-width: 0px;"/>
    <path d="M233.9,29.9v15.3h-6.4v-13.7c0-4.3-2-6.2-5.1-6.2s-4.9,1.4-4.9,6.2v13.7h-6.4v-13.7c0-4.3-2.1-6.2-5.1-6.2s-5.3,1.4-5.3,6.2v13.7h-6.4v-25h6.4v3.5c1.3-2.7,3.7-4,7.4-4s6.4,1.7,8.1,4.7c1.6-3,4-4.7,8.3-4.7,5.2,0,9.3,4,9.3,10.3l.1-.1Z" style="fill: #fff; stroke-width: 0px;"/>
  </g>
</svg>