<?xml version="1.0" encoding="UTF-8"?>
<svg id="gratis-check" xmlns="http://www.w3.org/2000/svg" viewBox="0 0 381.57 84.33">
  <path d="M2.79,37V12.66h3.3l12.78,19.11V12.66h3.09v24.34h-3.3L5.88,17.87v19.12h-3.09Z" style="fill: #fff; stroke-width: 0px;"/>
  <path d="M38.55,37v-2.59c-1.37,1.99-3.24,2.99-5.59,2.99-1.04,0-2.01-.2-2.91-.6-.9-.4-1.57-.9-2.01-1.5-.44-.6-.75-1.34-.92-2.22-.12-.59-.18-1.52-.18-2.79v-10.92h2.99v9.78c0,1.56.06,2.61.18,3.15.19.79.59,1.4,1.2,1.85.61.45,1.36.67,2.26.67s1.74-.23,2.52-.69c.79-.46,1.34-1.08,1.67-1.88.33-.79.49-1.94.49-3.44v-9.45h2.99v17.63h-2.67Z" style="fill: #fff; stroke-width: 0px;"/>
  <path d="M82.62,30.06l-.56,2.07.22.67-.22.17c.22.34.34.67.34,1.01,0,.22-.06.45-.17.67v.11c0,.45-.17,2.28-.5,5.49l-.11,1.06v.22l-.11.22-.06.22.06.34-.17.17-.17.34h-.22l.06.28-.11.34c0,.26-.09.52-.28.78l-.28.9c-.11.41-.3.78-.56,1.12-.26.48-.73,1.14-1.4,1.96l-.95.73-1.06.9-.84.39-.67.5-.45.11c-.75.41-1.59.65-2.52.73l-.34-.06-.5.22v.11c-.63.15-1.18.22-1.62.22h-2.18l-1.34-.28-1.18.28-.56-.51-1.68-.17-1.12-1.01-.84-.45c-1.49-.56-2.35-1.56-2.58-2.99l.11-.23-.17-.9c.45-.71.86-1.09,1.23-1.13.3-.19.6-.28.9-.28,1.38.22,2.45.35,3.19.39l-.11.84.67.45v.67l-.45.56,2.58.78,1.29-.28v.39l.39-.11h.11s.28.04.73.11l.06.22.56-.28c.45-.22,1.34-.34,2.68-.34.22-.15.41-.3.56-.45.04,0,.13.02.28.06h.33c.22,0,.45-.22.67-.67.04.11.11.17.22.17.08,0,.17-.04.28-.11.11-.08.19-.11.22-.11l.11-.03,1.82-1.53.82-1.29.05-.73.6-.78.05-.73.33-.67.27-1.51.44-1.4v-1.01c0-.82.11-1.64.34-2.46l-.34-.9v-2.75l-.34-.95v-1.57l-.45-1.18v-1.79l-.06-.28-.39.11-.33.84-.84.73-1,1.63-1.45,1.01-1.56,1.63c-.89.94-1.94,1.76-3.13,2.48l-.56.67-.84.51-.78.39-.73.73-.89.45c-.3.3-.73.51-1.29.62-.82.56-1.75.84-2.79.84h-1.4c-.3,0-.52-.02-.67-.06l-1-.06-1.45-1.4-1.06-1.4-.45-1.18-.39-2.24.22-1.62.56-1.9-.11-.62.5-1.74.5-1.01c.15-.49.22-1.06.22-1.74l1.23-2.3c.11-.3.39-.62.84-.95l.56-.95.67-.73c.15-.48.45-.91.9-1.29.3-.15.51-.43.64-.84.13-.41.83-.78,2.1-1.12l-.28.06.28-.11c.11-.19.37-.56.78-1.12l.67.11.5-.34c.6-.52,1.23-.78,1.9-.78h.39l1.46-.56.84.28h1.01l.62.34c.37.04.67.21.9.5l.78.78.22.11.11.22.5.78.06.28-.17.89.11.61-.72,1.11-1.61.22-.86-1.33-.8-.27-.39-.39h-.56c-.19.07-.58.25-1.18.55l-.06.45h-1.41c-.38.56-.79.86-1.24.9-.23.15-.45.28-.67.39l-.45,1.06-.39.06-.06.5-.79-.02-.7,1.19-.62.39-.22.78-.84,1.18-.11,1.12-.67.67-.62,2.41-.45.45.07.62-.68,2.12.17.67-.06.67c.26.37.39.76.39,1.17l.39.11.17.34c.63,0,1.04.08,1.23.22.34-.26,1.25-.54,2.74-.84.22-.52.54-.91.95-1.15.41-.24,1.25-.7,2.52-1.37l.17.06c0-.3.11-.58.34-.84.56-.22.9-.37,1.01-.45.3-.19.47-.43.5-.73l.9-.22.56-.5,1.4-1.9.39.22c.04-.11.45-.62,1.23-1.51l1.34-1.57.11-.73c.45-.41.97-1.6,1.57-3.58l-.28-1.18-.45-.78.34-.84-.45-.62-.11-.78-.17-.56.56-1.01c.6-.3,1.03-.45,1.29-.45.34,0,.78.17,1.34.5l.39.73.73.56.11,1.23c.11.34.24.84.39,1.51.19.34.28.73.28,1.18v.39l.11.34.62.9-.17,1.01.34.45c.11.26.17.54.17.84,0,.26-.02.47-.06.62l.62.17-.5,1.4.22,1.06c.19.37.28.71.28,1.01s-.09.67-.28,1.12l.34.28.5,2.02Z" style="fill: #fff; stroke-width: 0px;"/>
  <path d="M110.45,16.17l-.45,1.85-2.07.28-1.12.73-.73-.34-.78.44-.84.33-.56.38-.02.22-1.17.58-.78,1.02h-.39c-.6.63-1.03,1.03-1.29,1.18l-.78,1.29-.28.11c-.11.3-.24.75-.39,1.34l-.78.28-.33.67-.45.56-.11.84-.45.17v.84l-.17.17c.11.19.24.39.39.62l-.84.34-.11.73-.56.95.34.73-.73,1.01c.07.37.11.64.11.78v.22c-.04.11-.06.21-.06.28l.11.5.95,1.01-.73,1.29-.67.5-1.57.78-2.07-.84v-1.29l-.22-.5.17-.84c-.08-.6-.11-1.04-.11-1.34,0-.11.02-.26.06-.45v-.39l-.06-.56c-.26-.26-.39-.56-.39-.9,0-.3.13-.63.39-1.01,0-.19-.04-.75-.11-1.68l.17-.17-.17-.73.11-.67-.11-.39.17-1.29-.34-.56.22-.62-.22-.73c.04-.22.06-.52.06-.9,0-.56-.08-.93-.22-1.12l.22-.34-.22-1.01-.5-.73.28-.9-.22-.34-.22-1.34v-.45c-.19-.22-.28-.5-.28-.84,0-.75.82-1.38,2.46-1.9l1.4.28.28,1.06.56.73-.17,1.51c.11.75.24,1.57.39,2.46l.17.9c.04.08.07.28.11.62,0,.22-.09.47-.28.73l.17,1.12-.11,1.23-.22.56.17.22.11.56c.22-.26.35-.54.39-.84l.22-.84c.11-.22.28-.39.5-.5l.22-.84.78-.45.11-.67.62-.67.45-.84c.49-.52.95-.86,1.4-1.01l.11-.17.5-.78.56-.11.17-.17.22-.34.62-.34.34-.39.34.06.45-.22.22-.34.67-.34.95-.62,1.34-.45c.52-.07.8-.11.84-.11v.06s-.06.02-.06.06h.06c.15,0,.37-.07.67-.22.19-.15.45-.22.78-.22.15,0,.41.04.78.11.97.04,1.51.49,1.62,1.34Z" style="fill: #fff; stroke-width: 0px;"/>
  <path d="M133.41,14.32l-.56.73.45,1.34-.73.84-.28,1.18-.17.28.11.28c0,.52-.13.92-.39,1.18l-.11.17v.22c.11.26.17.5.17.73,0,.19-.02.32-.06.39l.06.22-.22.62.17.67-.45.45.17.78.34.39-.5.45v.9l-.39.9.28.9-.34.45.56.39-.78,1.29-.06.17.56.11-.39,1.29v.22c0,.26-.02.47-.06.62l.06.17.9.11.73,1.12-.39.84.62-.06c.22.45.35.84.39,1.18l-.84.84c-.26.26-.63.52-1.12.78l-.95.5-.28-.28-.56.28-1.74-2.01v-.95c-.22-.74-.34-1.43-.34-2.06v-.33l-.34-3.29.45-2.34-.34-1.34-.95,1.57-.5,1.46-.45.23-.78,1.24-1.4,1.3-.39.68-1.23,1.07-.28.73-1.79,1.13-1.9,2.14-1.06.22-.73.56c-.93-.04-1.64-.39-2.13-1.07-1.68-.82-2.56-2-2.63-3.54l.28-.17-.06-.34-.06-.67-.34-.73.34-.79.11-1.18.39-1.85v-.23c-.04-.08-.06-.15-.06-.22,0-.15.04-.34.11-.56-.04-.08-.06-.23-.06-.45,0-.26.11-.69.34-1.29l.39-.17c-.22-.19-.34-.39-.34-.62v-.73c0-.45.22-.79.67-1.01.11-.37.32-.75.62-1.12l-.28-.45.67-.84v-.22c0-.71.24-1.36.73-1.96l-.06-1.01.22-.22v-.17c-.04-.07-.06-.13-.06-.17,0-.22.08-.41.22-.56v-.34c.15-.37.54-.93,1.18-1.68.63-.75,1.1-1.4,1.4-1.96l.28.28.62-.28.28-.11,1.85-.84,4.31.22v.39l1.34.28c.86,0,1.42.28,1.68.84,0-.11.02-.24.06-.39v-.22l1.18,1.06,1.06.22,2.02-.5.73,1.4.84.34ZM128.09,17.23l-.22-.39-.45-.11-1.74-1.4-1.12-.17h-.9l-.11-.22-.45.22-.5-.22h-1.46l.17.22-1.29.45-.22.28-.17.06c-.67.56-1.14,1.03-1.4,1.4l-.39,1.35-.22.5.56.78-.95.73.11.22c-.41.71-.61,1.4-.61,2.07l-.45.56v1.01s-.45.5-.45.5l-.11.5-.17.11v.78l-.17.28c0,.45-.04.8-.11,1.06l.11.28-.5,1.06.22.34-.39.56.39,1.06-.62.78.11,1.06v.17l.22.11.28-.06c.19-.19.37-.36.56-.5l-.11-.45.78-.11.17-.39,3.29-2.69.33-.11.39-.95c.22-.07.54-.22.95-.45l.37-.89h.44s-.17-.95-.17-.95l.78-.11c.07-.15.2-.34.36-.56.17-.22.34-.43.53-.62l2.86-3.81.45-.84-.06-.22.39-.62.11-.62.5-.45.06-.62Z" style="fill: #fff; stroke-width: 0px;"/>
  <path d="M157.27,16.9c0,.34-.34.65-1.01.95-.15.19-.43.35-.84.5-.52.22-.9.41-1.12.56l-1.18-.39c-.6.45-1.36.67-2.3.67l-.67-.17-.5.39h-1.51l-.95.67c-.41-.15-.8-.22-1.18-.22-.11.08-.37.15-.78.22-.19,0-.39-.06-.62-.17l-.17,2.13v3.52l.02,2.13.17,1.01-.03.78.78,1.68c-.11.11-.17.24-.17.39,0,.26.41.47,1.23.62l.11.67.39.17.67.45.45.34c.37-.07.63-.11.78-.11.34,0,.67.06,1.01.17.15-.07.47-.34.95-.78.34-.3.65-.45.95-.45h.34c.34-.68.93-1.13,1.79-1.34.78,0,1.44.24,1.96.73v.39c0,1.27-.45,2.07-1.34,2.41-.34.78-1.05,1.29-2.13,1.51l-.67.62h-.73l-1.29.34c-.3.07-.73.11-1.29.11-.3,0-.62-.08-.95-.22h-.73l-1.96-1.06-.5-.17-1.18-1.57-.67-.73-1.23-2.8-.45-2.63.17-.67-.5-.62.28-.78-.28-1.23.39-.39.11-.73-.17-.67.17-1.01-.28-.9.28-.28v-.9l-.39-.17-1.06.22-1.01-.67h-.17c-1.12,0-1.68-.61-1.68-1.82v-.17l-.67-1.08,1.06-1.02,1.4.22.73-.11,1.06.28h1.18v-1.12l-.73-1.57.73-.39-.28-.84.06-1.74-.45-.73c-.26-.41-.39-.78-.39-1.12,0-.41.09-.75.28-1.01l.17-.78.45-.45c1.01-.19,1.68-.28,2.02-.28,1.19,0,1.85.54,1.96,1.63l-.17.28c.22.34.34.66.34.96,0,.04-.02.13-.06.28l-.11.34-.06.39.22.73-.06.28.11.79-.5.68.28,1.13-.22,1.35.45.51-.45,1.01,1.74-.28,3.08.28,2.46-.39.84.06.28-.06h2.18c1.16,0,1.74.41,1.74,1.23Z" style="fill: #fff; stroke-width: 0px;"/>
  <path d="M174.91,28.82c0,.86-.15,1.4-.45,1.62l-.28.22-.28.78-.9.28c-.26.6-.65,1.06-1.18,1.4l-.5.17-.73.78-.67.17c-.26.67-.8,1.03-1.62,1.06-.08.11-.24.34-.5.67-.56.37-1.14.6-1.74.67l-.28.06-.39.5h-1.12l-.9.67-2.3-1.68-1.06-2.18-.06-2.74-.22-.67.67-4.93.22-.22c-.11-.56-.17-1.1-.17-1.62,0-.34.11-1.03.34-2.07l.28-1.29c-.08-.22-.22-.47-.45-.73l.34-1.06.11-1.29.11-.17c-.15-.34-.24-.71-.28-1.12.04-.07.07-.18.11-.31.04-.13.06-.23.06-.31-.11-.34-.17-.65-.17-.95,0-.9.5-1.31,1.51-1.23h.67c.45-.19.73-.28.84-.28.75,0,1.25.41,1.51,1.23v.22c.15.45.22.88.22,1.29,0,.34-.04.58-.11.73l-.39,2.8.39.78c0,.67-.22,1.27-.67,1.79l.22.67-.73,2.13c-.08.93-.17,1.64-.28,2.13v1.4l-.34.78.06.56-.11,1.29.11,1.01.84.67.67-.11.11-.17.45.06.73-.22.62-.62.22-.34.39-.06.11-.28.17-.22.34.22.56-.56.34.06.11-.39h.11s.16-.45.16-.45l.5-.22,1.07-.5c.86-.6,1.7-.89,2.53-.89h.22c.41.26.69.6.84,1.01ZM169.19-.87c0,.45-.3.86-.9,1.23v.11c-.71.86-1.33,1.34-1.85,1.45l-.84,1-.56.73-1.29.32-.56.8-.89.46-1.45,1.31-.89-.84.17-1.4.62-1.01c.04-.52.34-.97.9-1.34v-.22l.34-.22.06-.84.9-.22V-.07l.67-.11c.15-.75.47-1.29.95-1.62l.17-.11.34-.34.45-1.34c2.46.59,3.7,1.51,3.7,2.73Z" style="fill: #fff; stroke-width: 0px;"/>
  <path d="M198.99,32.41l-.67.78-.62,1.46-.45.34-.39.78-1.12.11-.73.73h-1.12l-.67.56-.62-.17-.73.17v.45l-2.07-.17h-.9l-.67.39-.56-.34c.37-.04.67-.06.9-.06-.3.03-1.2.08-2.69.17l-.17-.08-.45-.08-.73.39c-.22-.1-.63-.2-1.23-.32-.82-.05-1.36-.07-1.62-.07h-.45c-.26-.11-.54-.17-.84-.17s-.6.06-.9.17l-.78-.5-.45-.11c-.11,0-.32-.05-.62-.17-1.38-.15-2.07-1.29-2.07-3.44v-.5l1.06-.78,1.34-.5,1.01.5h.78v.17c.37.15.67.45.9.9l.45.06v.73l.73.17.17.11,7.17-.45,1.74-.28h.17l.11-.28.78-.11.11-.17c.78-.11,1.51-.34,2.18-.67l.06-.28s-.11-.17-.22-.39l-.28.06-.73-.56h-.5l-.28-.39.17-.22-.62.11-.45-.45h-.56c-.49,0-.97-.09-1.46-.28h-.5l-.39-.17-.78.28-.45-.5h-.17l-.78-.62-1.74-.67-.56-.45-2.13-.39-.22-.39-1.57-1.01-.84-1.85-.67-.95-.22-2.91.22-.34c.07-.86.37-1.6.9-2.24.56-.3.84-.73.84-1.29l.84-.17c.15-.3.45-.58.9-.84l.84-.67,3.53-1.34.62-.17,1.12-.11,1.85-.5,3.53.22.11.28c.34.11.71.41,1.12.9v.28l.9.56-.39,1.34-.11.5c-.22.93-.75,1.4-1.57,1.4-.67,0-1.18-.32-1.51-.95v-.17h-.66s-.79.22-.79.22l-.73-.56-.39.29c-.49,0-.94.16-1.35.47-.56,0-1.11.23-1.63.7h-.73s-.51.32-.51.32l-.78.17-.11.11-.33.17-.5.51-.17.06-.5.79-.61.34c-.15.49-.24.9-.28,1.24.04.52.1.87.2,1.04.09.17.34.35.76.53v.28l.73.39c.6.22,1.05.47,1.35.73h1.12s.71.63.71.63l1.29.17.5.33,2.19.61.28.61.22-.39c.49,0,1.14.22,1.96.67l1.01.17.11.39h.9l1.57.9c.19.49.6.93,1.23,1.34l.62.39-.17.67c.26.37.39.77.39,1.18v.17Z" style="fill: #fff; stroke-width: 0px;"/>
  <path d="M217.53,37l-6.71-17.63h3.15l3.79,10.56c.41,1.14.79,2.32,1.13,3.55.27-.93.64-2.05,1.11-3.35l3.92-10.76h3.07l-6.67,17.63h-2.79Z" style="fill: #fff; stroke-width: 0px;"/>
  <path d="M229.6,37v-17.63h2.69v2.67c.69-1.25,1.32-2.08,1.9-2.47.58-.4,1.22-.6,1.92-.6,1.01,0,2.03.32,3.07.96l-1.03,2.77c-.73-.43-1.46-.65-2.19-.65-.65,0-1.24.2-1.76.59s-.89.94-1.11,1.63c-.33,1.06-.5,2.22-.5,3.49v9.23h-2.99Z" style="fill: #fff; stroke-width: 0px;"/>
  <path d="M240.97,16.1v-3.44h2.99v3.44h-2.99ZM240.97,37v-17.63h2.99v17.63h-2.99Z" style="fill: #fff; stroke-width: 0px;"/>
  <path d="M244.71,43.84l.56-2.54c.6.16,1.07.23,1.41.23.61,0,1.06-.2,1.36-.61.3-.4.45-1.41.45-3.03v-18.53h2.99v18.59c0,2.17-.28,3.68-.85,4.53-.72,1.11-1.92,1.66-3.59,1.66-.81,0-1.59-.11-2.34-.32ZM248.49,16.13v-3.47h2.99v3.47h-2.99Z" style="fill: #fff; stroke-width: 0px;"/>
  <path d="M258.82,37h-2.77V12.66h2.99v8.68c1.26-1.58,2.87-2.37,4.83-2.37,1.08,0,2.11.22,3.08.66.97.44,1.77,1.05,2.39,1.84.63.79,1.12,1.75,1.47,2.86.35,1.12.53,2.31.53,3.59,0,3.02-.75,5.36-2.24,7.01s-3.29,2.47-5.38,2.47-3.71-.87-4.9-2.61v2.21ZM258.78,28.05c0,2.11.29,3.64.86,4.58.94,1.54,2.21,2.31,3.82,2.31,1.31,0,2.43-.57,3.39-1.7.95-1.13,1.43-2.83,1.43-5.07s-.46-4-1.37-5.1c-.91-1.1-2.02-1.64-3.31-1.64s-2.43.57-3.39,1.7-1.43,2.77-1.43,4.92Z" style="fill: #fff; stroke-width: 0px;"/>
  <path d="M274.91,37V12.66h2.99v24.34h-2.99Z" style="fill: #fff; stroke-width: 0px;"/>
  <path d="M282.54,16.1v-3.44h2.99v3.44h-2.99ZM282.54,37v-17.63h2.99v17.63h-2.99Z" style="fill: #fff; stroke-width: 0px;"/>
  <path d="M286.28,43.84l.56-2.54c.6.16,1.07.23,1.41.23.61,0,1.06-.2,1.36-.61.3-.4.45-1.41.45-3.03v-18.53h2.99v18.59c0,2.17-.28,3.68-.85,4.53-.72,1.11-1.92,1.66-3.59,1.66-.81,0-1.59-.11-2.34-.32ZM290.06,16.13v-3.47h2.99v3.47h-2.99Z" style="fill: #fff; stroke-width: 0px;"/>
  <path d="M302.53,37l-6.71-17.63h3.15l3.79,10.56c.41,1.14.79,2.32,1.13,3.55.27-.93.64-2.05,1.11-3.35l3.92-10.76h3.07l-6.67,17.63h-2.79Z" style="fill: #fff; stroke-width: 0px;"/>
  <path d="M326.7,31.32l3.09.38c-.49,1.8-1.39,3.2-2.71,4.2s-3,1.49-5.05,1.49c-2.58,0-4.62-.79-6.13-2.38-1.51-1.59-2.27-3.82-2.27-6.68s.76-5.27,2.29-6.91c1.53-1.64,3.51-2.46,5.94-2.46s4.28.8,5.78,2.41c1.49,1.61,2.24,3.86,2.24,6.77,0,.18,0,.44-.02.8h-13.15c.11,1.94.66,3.42,1.64,4.45s2.21,1.54,3.69,1.54c1.1,0,2.03-.29,2.81-.86s1.39-1.49,1.84-2.76ZM316.89,26.49h9.84c-.13-1.48-.51-2.59-1.13-3.34-.95-1.15-2.19-1.73-3.7-1.73-1.37,0-2.53.46-3.46,1.38-.93.92-1.45,2.15-1.55,3.69Z" style="fill: #fff; stroke-width: 0px;"/>
  <path d="M333.54,37v-17.63h2.69v2.51c1.29-1.94,3.17-2.91,5.61-2.91,1.06,0,2.04.19,2.93.57.89.38,1.56.88,2,1.5.44.62.75,1.36.93,2.21.11.55.17,1.52.17,2.91v10.84h-2.99v-10.72c0-1.22-.12-2.13-.35-2.73s-.64-1.08-1.24-1.44c-.59-.36-1.29-.54-2.08-.54-1.27,0-2.37.4-3.3,1.21-.92.81-1.39,2.34-1.39,4.6v9.63h-2.99Z" style="fill: #fff; stroke-width: 0px;"/>
  <path d="M363.89,37v-2.22c-1.12,1.75-2.76,2.62-4.93,2.62-1.41,0-2.7-.39-3.88-1.16-1.18-.77-2.09-1.86-2.74-3.25-.65-1.39-.97-2.99-.97-4.79s.29-3.36.88-4.79,1.47-2.53,2.64-3.3,2.48-1.15,3.93-1.15c1.06,0,2.01.22,2.84.67s1.5,1.03,2.03,1.75v-8.73h2.97v24.34h-2.77ZM354.44,28.2c0,2.26.48,3.95,1.43,5.06s2.08,1.68,3.37,1.68,2.42-.53,3.33-1.6c.91-1.07,1.37-2.7,1.37-4.89,0-2.41-.46-4.18-1.39-5.31s-2.08-1.69-3.44-1.69-2.44.54-3.33,1.63c-.89,1.08-1.34,2.79-1.34,5.13Z" style="fill: #fff; stroke-width: 0px;"/>
  <path d="M13.94,71.34l2.94.38c-.32,2.03-1.14,3.61-2.47,4.76-1.32,1.15-2.95,1.72-4.87,1.72-2.41,0-4.35-.79-5.82-2.37-1.47-1.58-2.2-3.84-2.2-6.78,0-1.9.32-3.57.95-5s1.59-2.5,2.88-3.21c1.29-.71,2.69-1.07,4.21-1.07,1.92,0,3.48.48,4.7,1.45,1.22.97,2,2.34,2.34,4.12l-2.91.45c-.28-1.18-.77-2.08-1.47-2.67-.7-.6-1.55-.9-2.55-.9-1.5,0-2.73.54-3.67,1.62-.94,1.08-1.41,2.79-1.41,5.12s.45,4.09,1.36,5.16,2.09,1.61,3.55,1.61c1.17,0,2.15-.36,2.94-1.08s1.28-1.83,1.49-3.32Z" style="fill: #fff; stroke-width: 0px;"/>
  <path d="M19.44,77.8v-24.34h2.99v8.73c1.39-1.62,3.15-2.42,5.28-2.42,1.31,0,2.44.26,3.4.77.96.52,1.65,1.23,2.07,2.13.42.91.62,2.22.62,3.95v11.17h-2.99v-11.17c0-1.49-.32-2.58-.97-3.26-.65-.68-1.56-1.02-2.75-1.02-.89,0-1.72.23-2.5.69-.78.46-1.34,1.08-1.67,1.87s-.5,1.87-.5,3.25v9.65h-2.99Z" style="fill: #fff; stroke-width: 0px;"/>
  <path d="M50.42,72.12l3.09.38c-.49,1.8-1.39,3.2-2.71,4.2s-3,1.49-5.05,1.49c-2.58,0-4.62-.79-6.13-2.38-1.51-1.59-2.27-3.82-2.27-6.68s.76-5.27,2.29-6.91,3.51-2.46,5.94-2.46,4.28.8,5.78,2.41,2.24,3.86,2.24,6.77c0,.18,0,.44-.02.8h-13.15c.11,1.94.66,3.42,1.64,4.45s2.21,1.54,3.69,1.54c1.1,0,2.03-.29,2.81-.86s1.39-1.49,1.84-2.76ZM40.61,67.29h9.84c-.13-1.48-.51-2.6-1.13-3.34-.95-1.15-2.19-1.73-3.7-1.73-1.37,0-2.53.46-3.46,1.38-.93.92-1.45,2.15-1.55,3.69Z" style="fill: #fff; stroke-width: 0px;"/>
  <path d="M68.76,71.34l2.94.38c-.32,2.03-1.14,3.61-2.47,4.76-1.32,1.15-2.95,1.72-4.87,1.72-2.41,0-4.35-.79-5.82-2.37-1.47-1.58-2.2-3.84-2.2-6.78,0-1.9.32-3.57.95-5s1.59-2.5,2.88-3.21c1.29-.71,2.69-1.07,4.21-1.07,1.92,0,3.48.48,4.7,1.45,1.22.97,2,2.34,2.34,4.12l-2.91.45c-.28-1.18-.77-2.08-1.47-2.67-.7-.6-1.55-.9-2.55-.9-1.5,0-2.73.54-3.67,1.62-.94,1.08-1.41,2.79-1.41,5.12s.45,4.09,1.36,5.16,2.09,1.61,3.55,1.61c1.17,0,2.15-.36,2.94-1.08s1.28-1.83,1.49-3.32Z" style="fill: #fff; stroke-width: 0px;"/>
  <path d="M74.27,77.8v-24.34h2.99v13.88l7.07-7.17h3.87l-6.74,6.54,7.42,11.09h-3.69l-5.83-9.01-2.11,2.03v6.99h-2.99Z" style="fill: #fff; stroke-width: 0px;"/>
  <path d="M99.59,68.98c0-3.26.91-5.68,2.72-7.25,1.52-1.31,3.36-1.96,5.54-1.96,2.42,0,4.41.79,5.94,2.38,1.54,1.59,2.31,3.78,2.31,6.58,0,2.27-.34,4.05-1.02,5.35-.68,1.3-1.67,2.31-2.97,3.03-1.3.72-2.72,1.08-4.26,1.08-2.47,0-4.46-.79-5.98-2.37-1.52-1.58-2.28-3.86-2.28-6.84ZM102.66,68.98c0,2.26.49,3.95,1.48,5.07.99,1.12,2.22,1.69,3.72,1.69s2.72-.56,3.7-1.69,1.48-2.85,1.48-5.16c0-2.18-.5-3.83-1.49-4.96-.99-1.12-2.22-1.68-3.69-1.68s-2.73.56-3.72,1.68-1.48,2.81-1.48,5.06Z" style="fill: #fff; stroke-width: 0px;"/>
  <path d="M119.61,84.56v-24.39h2.72v2.29c.64-.9,1.37-1.57,2.17-2.02.81-.45,1.79-.67,2.94-.67,1.5,0,2.83.39,3.98,1.16s2.02,1.87,2.61,3.28c.59,1.41.88,2.96.88,4.64,0,1.8-.32,3.43-.97,4.87-.65,1.45-1.59,2.55-2.82,3.32-1.23.77-2.53,1.15-3.89,1.15-1,0-1.89-.21-2.68-.63-.79-.42-1.44-.95-1.95-1.59v8.58h-2.99ZM122.32,69.08c0,2.27.46,3.95,1.38,5.03s2.03,1.63,3.34,1.63,2.46-.56,3.41-1.69c.95-1.12,1.42-2.86,1.42-5.22s-.46-3.93-1.39-5.05c-.92-1.12-2.03-1.68-3.31-1.68s-2.4.59-3.38,1.78c-.98,1.19-1.47,2.92-1.47,5.19Z" style="fill: #fff; stroke-width: 0px;"/>
  <path d="M147.9,77.8v-24.34h2.99v24.34h-2.99Z" style="fill: #fff; stroke-width: 0px;"/>
  <path d="M154.41,68.98c0-3.26.91-5.68,2.72-7.25,1.52-1.31,3.36-1.96,5.54-1.96,2.42,0,4.41.79,5.94,2.38,1.54,1.59,2.31,3.78,2.31,6.58,0,2.27-.34,4.05-1.02,5.35-.68,1.3-1.67,2.31-2.97,3.03-1.3.72-2.72,1.08-4.26,1.08-2.47,0-4.46-.79-5.98-2.37-1.52-1.58-2.28-3.86-2.28-6.84ZM157.48,68.98c0,2.26.49,3.95,1.48,5.07.99,1.12,2.22,1.69,3.72,1.69s2.72-.56,3.7-1.69,1.48-2.85,1.48-5.16c0-2.18-.5-3.83-1.49-4.96-.99-1.12-2.22-1.68-3.69-1.68s-2.73.56-3.72,1.68-1.48,2.81-1.48,5.06Z" style="fill: #fff; stroke-width: 0px;"/>
  <path d="M185.94,71.34l2.94.38c-.32,2.03-1.14,3.61-2.47,4.76-1.32,1.15-2.95,1.72-4.87,1.72-2.41,0-4.35-.79-5.82-2.37-1.47-1.58-2.2-3.84-2.2-6.78,0-1.9.32-3.57.95-5s1.59-2.5,2.88-3.21c1.29-.71,2.69-1.07,4.21-1.07,1.92,0,3.48.48,4.7,1.45,1.22.97,2,2.34,2.34,4.12l-2.91.45c-.28-1.18-.77-2.08-1.47-2.67-.7-.6-1.55-.9-2.55-.9-1.5,0-2.73.54-3.67,1.62-.94,1.08-1.41,2.79-1.41,5.12s.45,4.09,1.36,5.16,2.09,1.61,3.55,1.61c1.17,0,2.15-.36,2.94-1.08s1.28-1.83,1.49-3.32Z" style="fill: #fff; stroke-width: 0px;"/>
  <path d="M202.94,75.62c-1.11.94-2.17,1.6-3.2,1.99-1.02.39-2.12.58-3.3.58-1.94,0-3.43-.47-4.47-1.42-1.04-.95-1.56-2.16-1.56-3.63,0-.86.2-1.65.59-2.37.39-.71.91-1.29,1.54-1.72.64-.43,1.35-.76,2.15-.98.59-.16,1.47-.3,2.66-.45,2.41-.29,4.19-.63,5.33-1.03.01-.41.02-.67.02-.78,0-1.22-.28-2.08-.85-2.57-.76-.67-1.9-1.01-3.4-1.01-1.41,0-2.44.25-3.11.74-.67.49-1.16,1.36-1.49,2.61l-2.92-.4c.27-1.25.7-2.26,1.31-3.03.61-.77,1.49-1.36,2.64-1.78,1.15-.42,2.48-.62,4-.62s2.73.18,3.67.53,1.63.8,2.08,1.34c.44.54.75,1.21.93,2.03.1.51.15,1.43.15,2.76v3.98c0,2.78.06,4.54.19,5.27.13.74.38,1.44.76,2.12h-3.12c-.31-.62-.51-1.34-.6-2.17ZM202.69,68.95c-1.08.44-2.71.82-4.88,1.13-1.23.18-2.1.38-2.61.6s-.9.54-1.18.97c-.28.43-.42.9-.42,1.42,0,.8.3,1.46.9,1.99.6.53,1.49.8,2.65.8s2.17-.25,3.07-.75c.9-.5,1.55-1.19,1.98-2.07.32-.67.48-1.67.48-2.99v-1.1Z" style="fill: #fff; stroke-width: 0px;"/>
  <path d="M216.87,75.13l.43,2.64c-.84.18-1.59.27-2.26.27-1.08,0-1.93-.17-2.52-.51s-1.02-.79-1.26-1.35c-.24-.56-.37-1.74-.37-3.53v-10.14h-2.19v-2.32h2.19v-4.37l2.97-1.79v6.16h3v2.32h-3v10.31c0,.85.05,1.4.16,1.64.11.24.28.44.52.58.24.14.58.22,1.02.22.33,0,.77-.04,1.31-.12Z" style="fill: #fff; stroke-width: 0px;"/>
  <path d="M219.8,56.9v-3.44h2.99v3.44h-2.99ZM219.8,77.8v-17.63h2.99v17.63h-2.99Z" style="fill: #fff; stroke-width: 0px;"/>
  <path d="M239.41,72.12l3.09.38c-.49,1.8-1.39,3.2-2.71,4.2s-3,1.49-5.05,1.49c-2.58,0-4.62-.79-6.13-2.38-1.51-1.59-2.27-3.82-2.27-6.68s.76-5.27,2.29-6.91,3.51-2.46,5.94-2.46,4.28.8,5.78,2.41,2.24,3.86,2.24,6.77c0,.18,0,.44-.02.8h-13.15c.11,1.94.66,3.42,1.64,4.45s2.21,1.54,3.69,1.54c1.1,0,2.03-.29,2.81-.86s1.39-1.49,1.84-2.76ZM229.6,67.29h9.84c-.13-1.48-.51-2.6-1.13-3.34-.95-1.15-2.19-1.73-3.7-1.73-1.37,0-2.53.46-3.46,1.38-.93.92-1.45,2.15-1.55,3.69Z" style="fill: #fff; stroke-width: 0px;"/>
  <path d="M247.84,71.76l-.91-12.9v-5.4h3.7v5.4l-.86,12.9h-1.93ZM247.06,77.8v-3.4h3.44v3.4h-3.44Z" style="fill: #fff; stroke-width: 0px;"/>
</svg>