<?xml version="1.0" encoding="UTF-8"?>
<svg id="schouwing" xmlns="http://www.w3.org/2000/svg" viewBox="0 0 485.23 84.33">
  <path d="M2.48,37V15.53h2.92l11.28,16.86V15.53h2.72v21.47h-2.92L5.21,20.13v16.88h-2.72Z" style="fill: #fff; stroke-width: 0px;"/>
  <path d="M34.04,37v-2.29c-1.21,1.76-2.86,2.64-4.94,2.64-.92,0-1.78-.18-2.57-.53-.8-.35-1.39-.79-1.77-1.33-.39-.53-.66-1.18-.81-1.96-.11-.52-.16-1.34-.16-2.46v-9.64h2.64v8.63c0,1.38.05,2.3.16,2.78.17.69.52,1.24,1.05,1.63.54.39,1.2.59,1.99.59s1.53-.2,2.23-.61c.69-.4,1.18-.96,1.47-1.65.29-.7.43-1.71.43-3.04v-8.33h2.64v15.56h-2.36Z" style="fill: #fff; stroke-width: 0px;"/>
  <path d="M74.29,30.55l-.52,1.92.21.62-.21.16c.21.31.31.62.31.94,0,.21-.05.42-.16.62v.1c0,.42-.16,2.11-.47,5.1l-.1.99v.21l-.1.21-.05.21.05.31-.16.16-.16.31h-.21l.05.26-.1.31c0,.24-.09.48-.26.73l-.26.83c-.1.38-.28.73-.52,1.04-.24.45-.68,1.06-1.3,1.82l-.88.68-.99.83-.78.36-.62.47-.42.1c-.69.38-1.47.61-2.34.68l-.31-.05-.47.21v.1c-.59.14-1.09.21-1.51.21h-2.03l-1.25-.26-1.09.26-.52-.47-1.56-.16-1.04-.94-.78-.42c-1.39-.52-2.18-1.45-2.39-2.78l.1-.21-.16-.84c.42-.66.8-1.01,1.14-1.05.28-.17.55-.26.83-.26,1.28.21,2.27.33,2.96.36l-.1.78.62.42v.62l-.42.52,2.39.73,1.2-.26v.36l.36-.1h.1s.26.03.67.1l.05.21.52-.26c.41-.21,1.24-.31,2.49-.31.21-.14.38-.28.52-.42.03,0,.12.02.26.05h.31c.21,0,.41-.21.62-.62.03.1.1.16.21.16.07,0,.15-.04.26-.1.1-.07.17-.1.21-.1l.1-.03,1.69-1.42.76-1.2.05-.68.56-.73.05-.68.3-.62.25-1.4.41-1.3v-.94c0-.76.1-1.53.31-2.29l-.31-.83v-2.55l-.31-.88v-1.46l-.42-1.09v-1.66l-.05-.26-.36.1-.31.78-.78.68-.93,1.51-1.35.94-1.45,1.51c-.83.87-1.8,1.64-2.91,2.3l-.52.63-.78.47-.73.37-.67.68-.83.42c-.28.28-.67.47-1.19.57-.76.52-1.62.78-2.59.78h-1.3c-.28,0-.48-.02-.62-.05l-.93-.05-1.35-1.3-.99-1.3-.42-1.09-.36-2.08.21-1.51.52-1.77-.1-.57.47-1.61.47-.94c.14-.45.21-.99.21-1.61l1.14-2.13c.1-.28.36-.57.78-.88l.52-.88.62-.68c.14-.45.42-.85.83-1.2.28-.14.48-.4.6-.78.12-.38.77-.73,1.95-1.04l-.26.05.26-.1c.1-.17.35-.52.73-1.04l.62.1.47-.31c.55-.49,1.14-.73,1.77-.73h.36l1.35-.52.78.26h.94l.57.31c.35.04.62.19.83.47l.73.73.21.1.1.21.47.73.05.26-.16.83.1.57-.67,1.03-1.49.21-.8-1.24-.75-.25-.36-.36h-.52c-.17.06-.54.24-1.1.51l-.05.42h-1.3c-.35.52-.73.8-1.15.83-.21.14-.42.26-.63.36l-.42.99-.37.05-.05.47-.73-.02-.65,1.11-.57.36-.21.73-.78,1.09-.1,1.04-.62.62-.57,2.24-.42.42.06.57-.63,1.97.15.62-.05.62c.24.35.36.71.36,1.09l.36.1.16.31c.59,0,.97.07,1.14.21.31-.24,1.16-.5,2.55-.78.21-.48.5-.84.88-1.07.38-.23,1.16-.65,2.34-1.27l.16.05c0-.28.1-.54.31-.78.52-.21.83-.35.94-.42.28-.17.43-.4.47-.68l.83-.21.52-.47,1.3-1.77.36.21c.03-.1.42-.57,1.14-1.4l1.25-1.46.1-.68c.42-.38.9-1.49,1.46-3.33l-.26-1.09-.42-.73.31-.78-.42-.57-.1-.73-.16-.52.52-.94c.55-.28.95-.42,1.2-.42.31,0,.73.16,1.25.47l.36.68.68.52.1,1.14c.1.31.23.78.36,1.4.17.31.26.68.26,1.09v.36l.1.31.57.83-.16.94.31.42c.1.24.16.5.16.78,0,.24-.02.43-.05.57l.57.16-.47,1.3.21.99c.17.35.26.66.26.94s-.09.62-.26,1.04l.31.26.47,1.87Z" style="fill: #fff; stroke-width: 0px;"/>
  <path d="M100.13,17.66l-.42,1.72-1.92.26-1.04.68-.68-.31-.73.41-.78.3-.52.36-.02.2-1.08.54-.73.95h-.36c-.55.59-.95.95-1.19,1.09l-.73,1.2-.26.1c-.1.28-.23.69-.36,1.25l-.73.26-.31.62-.42.52-.1.78-.42.16v.78l-.16.16c.1.17.23.36.36.57l-.78.31-.1.68-.52.88.31.68-.68.94c.07.35.1.59.1.73v.21c-.04.1-.05.19-.05.26l.1.47.88.94-.68,1.2-.62.47-1.46.73-1.92-.78v-1.2l-.21-.47.16-.78c-.07-.55-.1-.97-.1-1.25,0-.1.02-.24.05-.42v-.36l-.05-.52c-.24-.24-.36-.52-.36-.83,0-.28.12-.59.36-.94,0-.17-.04-.69-.1-1.56l.16-.16-.16-.68.1-.62-.1-.36.16-1.2-.31-.52.21-.57-.21-.68c.03-.21.05-.49.05-.83,0-.52-.07-.87-.21-1.04l.21-.31-.21-.94-.47-.68.26-.83-.21-.31-.21-1.25v-.42c-.17-.21-.26-.47-.26-.78,0-.69.76-1.28,2.29-1.77l1.3.26.26.99.52.68-.16,1.4c.1.69.23,1.46.36,2.29l.16.83c.03.07.07.26.1.57,0,.21-.09.43-.26.68l.16,1.04-.1,1.14-.21.52.16.21.1.52c.21-.24.33-.5.36-.78l.21-.78c.1-.21.26-.36.47-.47l.21-.78.73-.42.1-.62.57-.62.42-.78c.45-.49.88-.8,1.3-.94l.1-.16.47-.73.52-.1.16-.16.21-.31.57-.31.31-.36.31.05.42-.21.21-.31.62-.31.88-.57,1.25-.42c.49-.07.75-.1.78-.1v.05s-.05.02-.05.05h.05c.14,0,.35-.07.62-.21.17-.14.42-.21.73-.21.14,0,.38.04.73.1.9.03,1.4.45,1.51,1.25Z" style="fill: #fff; stroke-width: 0px;"/>
  <path d="M121.45,15.94l-.52.68.42,1.25-.68.78-.26,1.09-.16.26.1.26c0,.49-.12.85-.36,1.09l-.1.16v.21c.1.24.16.47.16.68,0,.17-.02.29-.05.36l.05.21-.21.57.16.62-.42.42.16.73.31.36-.47.42v.83l-.36.83.26.83-.31.42.52.36-.73,1.2-.05.16.52.1-.36,1.2v.21c0,.24-.02.43-.05.57l.05.16.83.1.68,1.04-.36.78.57-.05c.21.42.33.78.36,1.09l-.78.78c-.24.24-.59.48-1.04.73l-.88.47-.26-.26-.52.26-1.61-1.86v-.88c-.21-.69-.31-1.33-.31-1.92v-.31l-.31-3.05.42-2.17-.31-1.24-.88,1.46-.47,1.35-.42.21-.73,1.15-1.3,1.2-.36.63-1.14.99-.26.68-1.66,1.05-1.77,1.99-.99.21-.68.52c-.87-.04-1.53-.37-1.98-.99-1.56-.77-2.38-1.86-2.44-3.29l.26-.16-.05-.31-.05-.63-.31-.68.31-.73.1-1.1.36-1.72v-.21c-.04-.07-.05-.14-.05-.21,0-.14.03-.31.1-.52-.04-.07-.05-.21-.05-.42,0-.24.1-.64.31-1.2l.36-.16c-.21-.17-.31-.37-.31-.58v-.68c0-.42.21-.73.62-.94.1-.35.29-.7.57-1.04l-.26-.42.62-.78v-.21c0-.66.22-1.26.68-1.82l-.05-.94.21-.21v-.16c-.04-.07-.05-.12-.05-.16,0-.21.07-.38.21-.52v-.31c.14-.35.5-.87,1.09-1.56.59-.69,1.02-1.3,1.3-1.82l.26.26.57-.26.26-.1,1.72-.78,4,.21v.36l1.25.26c.8,0,1.32.26,1.56.78,0-.1.02-.23.05-.36v-.21l1.09.99.99.21,1.87-.47.68,1.3.78.31ZM116.51,18.64l-.21-.36-.42-.1-1.61-1.3-1.04-.16h-.83l-.1-.21-.42.21-.47-.21h-1.35l.16.21-1.2.42-.21.26-.16.05c-.62.52-1.06.95-1.3,1.3l-.36,1.25-.21.47.52.73-.88.68.1.21c-.38.66-.57,1.3-.57,1.92l-.42.52v.94s-.42.47-.42.47l-.1.47-.16.1v.73l-.16.26c0,.42-.04.75-.1.99l.1.26-.47.99.21.31-.36.52.36.99-.57.73.1.99v.16l.21.1.26-.05c.17-.17.35-.33.52-.47l-.1-.42.72-.1.16-.36,3.06-2.5.31-.1.36-.88c.21-.07.5-.21.88-.42l.34-.82h.41s-.16-.89-.16-.89l.73-.1c.07-.14.18-.31.34-.52.16-.21.32-.4.49-.57l2.65-3.54.42-.78-.05-.21.36-.57.1-.57.47-.42.05-.57Z" style="fill: #fff; stroke-width: 0px;"/>
  <path d="M143.6,18.33c0,.31-.31.61-.94.88-.14.17-.4.33-.78.47-.49.21-.83.38-1.04.52l-1.09-.36c-.55.42-1.27.62-2.13.62l-.62-.16-.47.36h-1.4l-.88.62c-.38-.14-.75-.21-1.09-.21-.1.07-.35.14-.73.21-.17,0-.36-.05-.57-.16l-.16,1.98v3.27l.02,1.98.16.94-.03.73.73,1.56c-.1.1-.16.23-.16.36,0,.24.38.43,1.14.57l.1.62.36.16.62.42.42.31c.35-.07.59-.1.73-.1.31,0,.62.05.94.16.14-.07.43-.31.88-.73.31-.28.61-.42.88-.42h.31c.31-.63.87-1.05,1.66-1.25.73,0,1.33.23,1.82.68v.36c0,1.18-.42,1.92-1.25,2.24-.31.73-.97,1.2-1.98,1.4l-.62.57h-.68l-1.2.31c-.28.07-.68.1-1.2.1-.28,0-.57-.07-.88-.21h-.68l-1.82-.99-.47-.16-1.09-1.46-.62-.68-1.14-2.6-.42-2.44.16-.62-.47-.57.26-.73-.26-1.14.36-.36.1-.68-.16-.62.16-.94-.26-.83.26-.26v-.83l-.36-.16-.99.21-.94-.62h-.16c-1.04,0-1.56-.56-1.56-1.69v-.16l-.62-1,.99-.95,1.3.21.68-.1.99.26h1.09v-1.04l-.68-1.46.68-.36-.26-.78.05-1.61-.42-.68c-.24-.38-.36-.73-.36-1.04,0-.38.09-.69.26-.94l.16-.73.42-.42c.94-.17,1.56-.26,1.87-.26,1.11,0,1.72.51,1.82,1.52l-.16.26c.21.31.31.61.31.89,0,.04-.02.12-.05.26l-.1.31-.05.37.21.68-.05.26.1.73-.47.63.26,1.04-.21,1.26.42.47-.42.94,1.61-.26,2.86.26,2.29-.36.78.05.26-.05h2.03c1.07,0,1.61.38,1.61,1.14Z" style="fill: #fff; stroke-width: 0px;"/>
  <path d="M159.98,29.41c0,.8-.14,1.3-.42,1.51l-.26.21-.26.73-.83.26c-.24.55-.61.99-1.09,1.3l-.47.16-.68.73-.62.16c-.24.62-.75.95-1.51.99-.07.1-.23.31-.47.62-.52.35-1.06.55-1.61.62l-.26.05-.36.47h-1.04l-.83.62-2.13-1.56-.99-2.03-.05-2.55-.21-.62.62-4.58.21-.21c-.1-.52-.16-1.02-.16-1.51,0-.31.1-.95.31-1.92l.26-1.2c-.07-.21-.21-.43-.42-.68l.31-.99.1-1.2.1-.16c-.14-.31-.23-.66-.26-1.04.03-.07.07-.16.1-.29.03-.12.05-.22.05-.29-.1-.31-.16-.61-.16-.88,0-.83.47-1.21,1.4-1.14h.62c.42-.17.68-.26.78-.26.69,0,1.16.38,1.4,1.14v.21c.14.42.21.82.21,1.2,0,.31-.04.54-.1.68l-.36,2.6.36.73c0,.62-.21,1.18-.62,1.66l.21.62-.68,1.98c-.07.87-.16,1.53-.26,1.98v1.3l-.31.73.05.52-.1,1.2.1.94.78.62.62-.1.1-.16.42.05.67-.21.57-.57.21-.31.36-.05.1-.26.16-.21.31.21.52-.52.31.05.1-.36h.1s.15-.42.15-.42l.47-.21.99-.47c.8-.55,1.58-.83,2.34-.83h.21c.38.24.64.56.78.94ZM154.68,1.84c0,.41-.28.79-.83,1.14v.1c-.66.79-1.23,1.24-1.72,1.35l-.78.93-.52.67-1.2.3-.52.74-.83.42-1.35,1.21-.83-.78.16-1.3.57-.94c.03-.48.31-.9.83-1.25v-.21l.31-.21.05-.78.83-.21v-.47l.62-.1c.14-.69.43-1.2.88-1.51l.16-.1.31-.31.42-1.25c2.29.55,3.43,1.4,3.43,2.54Z" style="fill: #fff; stroke-width: 0px;"/>
  <path d="M182.34,32.74l-.62.73-.57,1.35-.42.31-.36.73-1.04.1-.68.68h-1.04l-.62.52-.57-.16-.68.16v.42l-1.92-.16h-.83l-.62.36-.52-.31c.35-.04.62-.05.83-.05-.28.03-1.11.08-2.5.16l-.16-.08-.42-.08-.68.36c-.21-.09-.59-.19-1.14-.3-.76-.04-1.27-.07-1.51-.07h-.42c-.24-.1-.5-.16-.78-.16s-.56.05-.83.16l-.73-.46-.42-.1c-.1,0-.29-.05-.57-.16-1.28-.14-1.92-1.2-1.92-3.19v-.46l.99-.72,1.25-.46.94.47h.73v.16c.35.14.62.42.83.83l.42.05v.68l.68.16.16.1,6.66-.42,1.61-.26h.16l.1-.26.73-.1.1-.16c.73-.1,1.4-.31,2.03-.62l.05-.26s-.1-.16-.21-.36l-.26.05-.68-.52h-.47l-.26-.36.16-.21-.57.1-.42-.42h-.52c-.45,0-.9-.09-1.35-.26h-.47l-.36-.16-.73.26-.42-.47h-.16l-.73-.57-1.61-.62-.52-.42-1.98-.36-.21-.36-1.46-.94-.78-1.72-.62-.88-.21-2.7.21-.31c.07-.8.35-1.49.83-2.08.52-.28.78-.68.78-1.2l.78-.16c.14-.28.42-.54.83-.78l.78-.62,3.28-1.25.57-.16,1.04-.1,1.72-.47,3.28.21.1.26c.31.1.66.38,1.04.83v.26l.83.52-.36,1.25-.1.47c-.21.87-.69,1.3-1.46,1.3-.62,0-1.09-.29-1.4-.88v-.16h-.61s-.73.2-.73.2l-.68-.52-.37.27c-.45,0-.87.14-1.25.43-.52,0-1.03.22-1.52.65h-.68s-.47.3-.47.3l-.72.16-.1.1-.31.16-.47.47-.16.05-.47.73-.57.31c-.14.45-.22.83-.26,1.15.03.49.09.81.18.96.09.16.32.32.7.5v.26l.68.37c.55.21.97.43,1.25.68h1.04s.66.59.66.59l1.2.15.47.31,2.03.57.26.57.21-.36c.45,0,1.06.21,1.82.62l.94.16.1.36h.83l1.46.83c.17.45.56.87,1.15,1.25l.57.36-.16.62c.24.35.36.71.36,1.09v.16Z" style="fill: #fff; stroke-width: 0px;"/>
  <path d="M198.8,37l-5.92-15.56h2.78l3.34,9.32c.36,1.01.69,2.05,1,3.13.23-.82.56-1.81.98-2.96l3.46-9.49h2.71l-5.89,15.56h-2.46Z" style="fill: #fff; stroke-width: 0px;"/>
  <path d="M209.44,37v-15.56h2.37v2.36c.61-1.1,1.17-1.83,1.68-2.18.51-.35,1.08-.53,1.69-.53.89,0,1.79.28,2.71.85l-.91,2.45c-.64-.38-1.29-.57-1.93-.57-.58,0-1.09.17-1.55.52s-.79.83-.98,1.44c-.29.94-.44,1.96-.44,3.08v8.14h-2.64Z" style="fill: #fff; stroke-width: 0px;"/>
  <path d="M219.48,18.56v-3.03h2.64v3.03h-2.64ZM219.48,37v-15.56h2.64v15.56h-2.64Z" style="fill: #fff; stroke-width: 0px;"/>
  <path d="M222.77,43.04l.5-2.24c.53.14.94.21,1.25.21.54,0,.94-.18,1.2-.53.26-.36.4-1.25.4-2.67v-16.35h2.64v16.41c0,1.91-.25,3.25-.75,4-.63.98-1.69,1.46-3.16,1.46-.71,0-1.4-.09-2.07-.28ZM226.11,18.59v-3.06h2.64v3.06h-2.64Z" style="fill: #fff; stroke-width: 0px;"/>
  <path d="M235.23,37h-2.45V15.53h2.64v7.66c1.11-1.4,2.53-2.09,4.26-2.09.96,0,1.86.19,2.72.58.85.39,1.56.93,2.11,1.63.55.7.98,1.54,1.3,2.53s.47,2.04.47,3.16c0,2.67-.66,4.73-1.98,6.18s-2.9,2.18-4.75,2.18-3.28-.77-4.32-2.3v1.95ZM235.2,29.1c0,1.87.25,3.21.76,4.04.83,1.36,1.95,2.04,3.37,2.04,1.15,0,2.15-.5,2.99-1.5.84-1,1.26-2.49,1.26-4.47s-.4-3.53-1.21-4.5c-.81-.97-1.78-1.45-2.92-1.45s-2.15.5-2.99,1.5-1.26,2.45-1.26,4.34Z" style="fill: #fff; stroke-width: 0px;"/>
  <path d="M249.42,37V15.53h2.64v21.47h-2.64Z" style="fill: #fff; stroke-width: 0px;"/>
  <path d="M266.79,31.99l2.72.34c-.43,1.59-1.23,2.83-2.39,3.71s-2.65,1.32-4.45,1.32c-2.28,0-4.08-.7-5.41-2.1-1.33-1.4-2-3.37-2-5.9s.67-4.65,2.02-6.09,3.1-2.17,5.24-2.17,3.78.71,5.1,2.12,1.98,3.41,1.98,5.98c0,.16,0,.39-.01.7h-11.6c.1,1.71.58,3.02,1.45,3.93s1.95,1.36,3.25,1.36c.97,0,1.79-.25,2.48-.76s1.23-1.32,1.63-2.43ZM258.14,27.73h8.69c-.12-1.31-.45-2.29-1-2.94-.84-1.02-1.93-1.52-3.27-1.52-1.21,0-2.23.41-3.05,1.22-.83.81-1.28,1.89-1.37,3.25Z" style="fill: #fff; stroke-width: 0px;"/>
  <path d="M277.15,37l-5.92-15.56h2.78l3.34,9.32c.36,1.01.69,2.05,1,3.13.23-.82.56-1.81.98-2.96l3.46-9.49h2.71l-5.89,15.56h-2.46Z" style="fill: #fff; stroke-width: 0px;"/>
  <path d="M298.48,31.99l2.72.34c-.43,1.59-1.23,2.83-2.39,3.71s-2.65,1.32-4.45,1.32c-2.28,0-4.08-.7-5.41-2.1-1.33-1.4-2-3.37-2-5.9s.67-4.65,2.02-6.09,3.1-2.17,5.24-2.17,3.78.71,5.1,2.12,1.98,3.41,1.98,5.98c0,.16,0,.39-.01.7h-11.6c.1,1.71.58,3.02,1.45,3.93s1.95,1.36,3.25,1.36c.97,0,1.79-.25,2.48-.76s1.23-1.32,1.63-2.43ZM289.82,27.73h8.69c-.12-1.31-.45-2.29-1-2.94-.84-1.02-1.93-1.52-3.27-1.52-1.21,0-2.23.41-3.05,1.22-.83.81-1.28,1.89-1.37,3.25Z" style="fill: #fff; stroke-width: 0px;"/>
  <path d="M304.51,37v-15.56h2.37v2.21c1.14-1.71,2.79-2.56,4.95-2.56.94,0,1.8.17,2.58.5s1.38.78,1.77,1.33.66,1.2.82,1.95c.1.49.15,1.34.15,2.56v9.57h-2.64v-9.46c0-1.07-.1-1.88-.31-2.41s-.57-.96-1.09-1.27c-.52-.32-1.14-.48-1.84-.48-1.12,0-2.09.36-2.91,1.07-.82.71-1.22,2.07-1.22,4.06v8.5h-2.64Z" style="fill: #fff; stroke-width: 0px;"/>
  <path d="M331.29,37v-1.96c-.99,1.54-2.44,2.31-4.35,2.31-1.24,0-2.38-.34-3.42-1.03-1.04-.68-1.85-1.64-2.42-2.86-.57-1.23-.86-2.63-.86-4.23s.26-2.96.78-4.23c.52-1.26,1.29-2.23,2.33-2.91s2.19-1.01,3.47-1.01c.94,0,1.77.2,2.5.59s1.33.91,1.79,1.55v-7.71h2.62v21.47h-2.45ZM322.96,29.24c0,1.99.42,3.48,1.26,4.47s1.83,1.48,2.97,1.48,2.13-.47,2.94-1.41c.8-.94,1.21-2.38,1.21-4.31,0-2.13-.41-3.69-1.23-4.69s-1.83-1.49-3.03-1.49-2.15.48-2.94,1.44-1.18,2.47-1.18,4.53Z" style="fill: #fff; stroke-width: 0px;"/>
  <path d="M345.16,32.36l2.61-.41c.15,1.04.55,1.85,1.22,2.4.67.56,1.6.83,2.8.83s2.11-.25,2.7-.74c.59-.49.88-1.07.88-1.74,0-.6-.26-1.06-.78-1.41-.36-.23-1.26-.53-2.7-.89-1.93-.49-3.27-.91-4.02-1.27-.75-.36-1.31-.85-1.7-1.48-.39-.63-.58-1.33-.58-2.09,0-.69.16-1.34.48-1.93s.75-1.08,1.3-1.47c.41-.3.97-.56,1.68-.77.71-.21,1.47-.31,2.28-.31,1.22,0,2.29.18,3.21.53.92.35,1.6.83,2.04,1.43s.74,1.4.91,2.41l-2.58.35c-.12-.8-.46-1.43-1.02-1.88s-1.35-.67-2.38-.67c-1.21,0-2.08.2-2.59.6s-.78.87-.78,1.41c0,.34.11.65.32.92.21.28.55.52,1.01.7.26.1,1.04.32,2.33.67,1.87.5,3.17.91,3.9,1.22.74.32,1.32.78,1.74,1.38s.63,1.36.63,2.26-.26,1.71-.77,2.48c-.51.78-1.25,1.38-2.22,1.8-.97.42-2.06.64-3.28.64-2.02,0-3.56-.42-4.62-1.26s-1.74-2.08-2.03-3.74Z" style="fill: #fff; stroke-width: 0px;"/>
  <path d="M371.37,31.3l2.59.34c-.28,1.79-1.01,3.19-2.17,4.2-1.17,1.01-2.6,1.52-4.3,1.52-2.13,0-3.84-.7-5.13-2.09-1.29-1.39-1.94-3.39-1.94-5.98,0-1.68.28-3.15.83-4.41s1.4-2.21,2.54-2.83c1.14-.63,2.38-.94,3.71-.94,1.69,0,3.07.43,4.15,1.28s1.76,2.07,2.07,3.64l-2.56.4c-.24-1.04-.68-1.83-1.3-2.36-.62-.53-1.37-.79-2.25-.79-1.33,0-2.41.48-3.24,1.43s-1.25,2.46-1.25,4.52.4,3.61,1.2,4.56,1.85,1.42,3.13,1.42c1.04,0,1.9-.32,2.59-.95s1.13-1.61,1.32-2.93Z" style="fill: #fff; stroke-width: 0px;"/>
  <path d="M376.22,37V15.53h2.64v7.71c1.23-1.43,2.78-2.14,4.66-2.14,1.15,0,2.15.23,3,.68s1.46,1.08,1.82,1.88c.37.8.55,1.96.55,3.49v9.86h-2.64v-9.86c0-1.32-.29-2.28-.86-2.88-.57-.6-1.38-.9-2.42-.9-.78,0-1.52.2-2.21.61-.69.41-1.18.96-1.47,1.65s-.44,1.65-.44,2.87v8.51h-2.64Z" style="fill: #fff; stroke-width: 0px;"/>
  <path d="M391.92,29.22c0-2.88.8-5.01,2.4-6.4,1.34-1.15,2.97-1.73,4.89-1.73,2.14,0,3.89.7,5.24,2.1s2.04,3.34,2.04,5.81c0,2-.3,3.58-.9,4.72-.6,1.15-1.47,2.04-2.62,2.67-1.15.63-2.4.95-3.76.95-2.18,0-3.94-.7-5.28-2.09s-2.01-3.41-2.01-6.04ZM394.63,29.22c0,1.99.43,3.48,1.3,4.48s1.96,1.49,3.28,1.49,2.4-.5,3.27-1.49,1.3-2.51,1.3-4.56c0-1.92-.44-3.38-1.31-4.37-.88-.99-1.96-1.49-3.26-1.49s-2.41.49-3.28,1.48-1.3,2.48-1.3,4.47Z" style="fill: #fff; stroke-width: 0px;"/>
  <path d="M419.78,37v-2.29c-1.21,1.76-2.86,2.64-4.94,2.64-.92,0-1.78-.18-2.57-.53-.8-.35-1.39-.79-1.77-1.33-.39-.53-.66-1.18-.81-1.96-.11-.52-.16-1.34-.16-2.46v-9.64h2.64v8.63c0,1.38.05,2.3.16,2.78.17.69.52,1.24,1.05,1.63.54.39,1.2.59,1.99.59s1.53-.2,2.23-.61c.69-.4,1.18-.96,1.47-1.65.29-.7.43-1.71.43-3.04v-8.33h2.64v15.56h-2.36Z" style="fill: #fff; stroke-width: 0px;"/>
  <path d="M429.14,37l-4.76-15.56h2.72l2.48,8.98.92,3.34c.04-.17.31-1.24.81-3.21l2.48-9.11h2.71l2.33,9.02.78,2.97.89-3,2.67-8.99h2.56l-4.86,15.56h-2.74l-2.48-9.32-.6-2.65-3.15,11.97h-2.75Z" style="fill: #fff; stroke-width: 0px;"/>
  <path d="M447.95,18.56v-3.03h2.64v3.03h-2.64ZM447.95,37v-15.56h2.64v15.56h-2.64Z" style="fill: #fff; stroke-width: 0px;"/>
  <path d="M454.6,37v-15.56h2.37v2.21c1.14-1.71,2.79-2.56,4.95-2.56.94,0,1.8.17,2.58.5s1.38.78,1.77,1.33.66,1.2.82,1.95c.1.49.15,1.34.15,2.56v9.57h-2.64v-9.46c0-1.07-.1-1.88-.31-2.41s-.57-.96-1.09-1.27c-.52-.32-1.14-.48-1.84-.48-1.12,0-2.09.36-2.91,1.07-.82.71-1.22,2.07-1.22,4.06v8.5h-2.64Z" style="fill: #fff; stroke-width: 0px;"/>
  <path d="M470.8,38.29l2.56.38c.11.79.41,1.37.89,1.73.65.49,1.55.73,2.68.73,1.22,0,2.16-.24,2.83-.73s1.11-1.17,1.35-2.05c.14-.54.2-1.67.19-3.38-1.15,1.36-2.59,2.04-4.31,2.04-2.14,0-3.79-.77-4.97-2.31s-1.76-3.39-1.76-5.55c0-1.48.27-2.85.81-4.11.54-1.25,1.32-2.22,2.34-2.91,1.02-.68,2.22-1.03,3.6-1.03,1.84,0,3.35.74,4.54,2.23v-1.88h2.43v13.45c0,2.42-.25,4.14-.74,5.15-.49,1.01-1.27,1.81-2.34,2.4-1.07.59-2.38.88-3.95.88-1.86,0-3.35-.42-4.5-1.25-1.14-.83-1.69-2.09-1.66-3.77ZM472.98,28.94c0,2.04.41,3.53,1.22,4.47s1.83,1.41,3.05,1.41,2.23-.47,3.05-1.4c.82-.93,1.23-2.39,1.23-4.39s-.42-3.34-1.27-4.31-1.86-1.45-3.05-1.45-2.17.48-2.99,1.43-1.23,2.37-1.23,4.24Z" style="fill: #fff; stroke-width: 0px;"/>
  <path d="M1.2,65.22c0-2.88.8-5.01,2.4-6.4,1.34-1.15,2.97-1.73,4.89-1.73,2.14,0,3.89.7,5.24,2.1,1.36,1.4,2.04,3.34,2.04,5.81,0,2-.3,3.58-.9,4.72-.6,1.15-1.47,2.04-2.62,2.67-1.15.63-2.4.95-3.76.95-2.18,0-3.94-.7-5.28-2.09s-2.01-3.41-2.01-6.04ZM3.91,65.22c0,1.99.43,3.48,1.3,4.48s1.96,1.49,3.28,1.49,2.4-.5,3.27-1.49,1.3-2.51,1.3-4.56c0-1.92-.44-3.38-1.31-4.37-.88-.99-1.96-1.49-3.26-1.49s-2.41.49-3.28,1.48-1.3,2.48-1.3,4.47Z" style="fill: #fff; stroke-width: 0px;"/>
  <path d="M18.86,78.96v-21.52h2.4v2.02c.57-.79,1.21-1.38,1.92-1.78.71-.4,1.58-.59,2.59-.59,1.33,0,2.5.34,3.52,1.03s1.78,1.65,2.3,2.89c.52,1.25.78,2.61.78,4.09,0,1.59-.29,3.02-.86,4.3-.57,1.27-1.4,2.25-2.49,2.93-1.09.68-2.23,1.02-3.44,1.02-.88,0-1.67-.19-2.37-.56-.7-.37-1.27-.84-1.72-1.41v7.57h-2.64ZM21.25,65.31c0,2,.41,3.48,1.22,4.44s1.79,1.44,2.94,1.44,2.18-.5,3.01-1.49c.84-.99,1.25-2.53,1.25-4.61s-.41-3.47-1.22-4.45-1.79-1.48-2.92-1.48-2.12.53-2.98,1.58c-.87,1.05-1.3,2.58-1.3,4.58Z" style="fill: #fff; stroke-width: 0px;"/>
  <path d="M43.82,73v-21.47h2.64v21.47h-2.64Z" style="fill: #fff; stroke-width: 0px;"/>
  <path d="M49.56,65.22c0-2.88.8-5.01,2.4-6.4,1.34-1.15,2.97-1.73,4.89-1.73,2.14,0,3.89.7,5.24,2.1,1.36,1.4,2.04,3.34,2.04,5.81,0,2-.3,3.58-.9,4.72-.6,1.15-1.47,2.04-2.62,2.67-1.15.63-2.4.95-3.76.95-2.18,0-3.94-.7-5.28-2.09s-2.01-3.41-2.01-6.04ZM52.27,65.22c0,1.99.43,3.48,1.3,4.48s1.96,1.49,3.28,1.49,2.4-.5,3.27-1.49,1.3-2.51,1.3-4.56c0-1.92-.44-3.38-1.31-4.37-.88-.99-1.96-1.49-3.26-1.49s-2.41.49-3.28,1.48-1.3,2.48-1.3,4.47Z" style="fill: #fff; stroke-width: 0px;"/>
  <path d="M77.38,67.3l2.59.34c-.28,1.79-1.01,3.19-2.17,4.2-1.17,1.01-2.6,1.52-4.3,1.52-2.13,0-3.84-.7-5.13-2.09-1.29-1.39-1.94-3.39-1.94-5.98,0-1.68.28-3.15.83-4.41s1.4-2.21,2.54-2.83c1.14-.63,2.38-.95,3.71-.95,1.69,0,3.07.43,4.15,1.28,1.07.86,1.76,2.07,2.07,3.64l-2.56.4c-.24-1.04-.68-1.83-1.3-2.36-.62-.53-1.37-.79-2.25-.79-1.33,0-2.41.48-3.24,1.43-.83.95-1.25,2.46-1.25,4.52s.4,3.61,1.2,4.56,1.85,1.42,3.13,1.42c1.04,0,1.9-.32,2.59-.95s1.13-1.61,1.32-2.93Z" style="fill: #fff; stroke-width: 0px;"/>
  <path d="M92.38,71.08c-.98.83-1.92,1.42-2.82,1.76s-1.87.51-2.91.51c-1.71,0-3.02-.42-3.94-1.25-.92-.84-1.38-1.9-1.38-3.2,0-.76.17-1.46.52-2.09.35-.63.8-1.13,1.36-1.52.56-.38,1.19-.67,1.9-.86.52-.14,1.3-.27,2.34-.4,2.13-.25,3.7-.56,4.7-.91,0-.36.01-.59.01-.69,0-1.07-.25-1.83-.75-2.27-.67-.6-1.67-.89-3-.89-1.24,0-2.16.22-2.75.65-.59.44-1.03,1.2-1.31,2.31l-2.58-.35c.23-1.1.62-1.99,1.16-2.67s1.31-1.2,2.33-1.57c1.02-.37,2.19-.55,3.53-.55s2.41.16,3.24.47,1.44.71,1.83,1.18.66,1.07.82,1.79c.09.45.13,1.26.13,2.43v3.52c0,2.45.06,4,.17,4.65.11.65.33,1.27.67,1.87h-2.75c-.27-.55-.45-1.19-.53-1.92ZM92.16,65.19c-.96.39-2.39.72-4.31,1-1.08.16-1.85.33-2.3.53s-.8.48-1.04.86c-.24.38-.37.79-.37,1.25,0,.7.27,1.29.8,1.76.53.47,1.31.7,2.34.7s1.92-.22,2.71-.67c.79-.44,1.37-1.05,1.74-1.82.28-.6.42-1.47.42-2.64v-.97Z" style="fill: #fff; stroke-width: 0px;"/>
  <path d="M104.67,70.64l.38,2.33c-.74.16-1.41.23-1.99.23-.96,0-1.7-.15-2.23-.45s-.9-.7-1.11-1.19c-.21-.49-.32-1.53-.32-3.11v-8.95h-1.93v-2.05h1.93v-3.85l2.62-1.58v5.43h2.65v2.05h-2.65v9.1c0,.75.05,1.24.14,1.45.09.21.24.39.45.51s.51.19.9.19c.29,0,.68-.03,1.16-.1Z" style="fill: #fff; stroke-width: 0px;"/>
  <path d="M107.26,54.56v-3.03h2.64v3.03h-2.64ZM107.26,73v-15.56h2.64v15.56h-2.64Z" style="fill: #fff; stroke-width: 0px;"/>
  <path d="M124.56,67.99l2.72.34c-.43,1.59-1.23,2.83-2.39,3.71s-2.65,1.32-4.45,1.32c-2.28,0-4.08-.7-5.41-2.1-1.33-1.4-2-3.37-2-5.9s.67-4.65,2.02-6.09,3.1-2.17,5.24-2.17,3.78.71,5.1,2.12,1.98,3.41,1.98,5.98c0,.16,0,.39-.01.7h-11.6c.1,1.71.58,3.02,1.45,3.93s1.95,1.36,3.25,1.36c.97,0,1.79-.25,2.48-.76s1.23-1.32,1.63-2.43ZM115.91,63.73h8.69c-.12-1.31-.45-2.29-1-2.94-.84-1.02-1.93-1.52-3.27-1.52-1.21,0-2.23.41-3.05,1.22-.83.81-1.28,1.89-1.37,3.25Z" style="fill: #fff; stroke-width: 0px;"/>
  <path d="M144.69,70.64l.38,2.33c-.74.16-1.41.23-1.99.23-.96,0-1.7-.15-2.23-.45s-.9-.7-1.11-1.19c-.21-.49-.32-1.53-.32-3.11v-8.95h-1.93v-2.05h1.93v-3.85l2.62-1.58v5.43h2.65v2.05h-2.65v9.1c0,.75.05,1.24.14,1.45.09.21.24.39.45.51s.51.19.9.19c.29,0,.68-.03,1.16-.1Z" style="fill: #fff; stroke-width: 0px;"/>
  <path d="M157.92,67.99l2.72.34c-.43,1.59-1.23,2.83-2.39,3.71s-2.65,1.32-4.45,1.32c-2.28,0-4.08-.7-5.41-2.1-1.33-1.4-2-3.37-2-5.9s.67-4.65,2.02-6.09,3.1-2.17,5.24-2.17,3.78.71,5.1,2.12,1.98,3.41,1.98,5.98c0,.16,0,.39-.01.7h-11.6c.1,1.71.58,3.02,1.45,3.93s1.95,1.36,3.25,1.36c.97,0,1.79-.25,2.48-.76s1.23-1.32,1.63-2.43ZM149.26,63.73h8.69c-.12-1.31-.45-2.29-1-2.94-.84-1.02-1.93-1.52-3.27-1.52-1.21,0-2.23.41-3.05,1.22-.83.81-1.28,1.89-1.37,3.25Z" style="fill: #fff; stroke-width: 0px;"/>
  <path d="M163.93,73v-15.56h2.37v2.36c.61-1.1,1.17-1.83,1.68-2.18.51-.35,1.08-.53,1.69-.53.89,0,1.79.28,2.71.85l-.91,2.45c-.64-.38-1.29-.57-1.93-.57-.58,0-1.09.17-1.55.52-.46.35-.79.83-.98,1.44-.29.94-.44,1.96-.44,3.08v8.14h-2.64Z" style="fill: #fff; stroke-width: 0px;"/>
  <path d="M185.15,73l-4.76-15.56h2.72l2.48,8.98.92,3.34c.04-.17.31-1.24.81-3.21l2.48-9.11h2.71l2.33,9.02.78,2.97.89-3,2.67-8.99h2.56l-4.86,15.56h-2.74l-2.48-9.32-.6-2.65-3.15,11.97h-2.75Z" style="fill: #fff; stroke-width: 0px;"/>
  <path d="M214.1,71.08c-.98.83-1.92,1.42-2.82,1.76s-1.87.51-2.91.51c-1.71,0-3.02-.42-3.94-1.25-.92-.84-1.38-1.9-1.38-3.2,0-.76.17-1.46.52-2.09.35-.63.8-1.13,1.36-1.52.56-.38,1.19-.67,1.9-.86.52-.14,1.3-.27,2.34-.4,2.13-.25,3.7-.56,4.7-.91,0-.36.01-.59.01-.69,0-1.07-.25-1.83-.75-2.27-.67-.6-1.67-.89-3-.89-1.24,0-2.16.22-2.75.65-.59.44-1.03,1.2-1.31,2.31l-2.58-.35c.23-1.1.62-1.99,1.16-2.67s1.31-1.2,2.33-1.57c1.02-.37,2.19-.55,3.53-.55s2.41.16,3.24.47,1.44.71,1.83,1.18.66,1.07.82,1.79c.09.45.13,1.26.13,2.43v3.52c0,2.45.06,4,.17,4.65.11.65.33,1.27.67,1.87h-2.75c-.27-.55-.45-1.19-.53-1.92ZM213.88,65.19c-.96.39-2.39.72-4.31,1-1.08.16-1.85.33-2.3.53s-.8.48-1.04.86c-.24.38-.37.79-.37,1.25,0,.7.27,1.29.8,1.76.53.47,1.31.7,2.34.7s1.92-.22,2.71-.67c.79-.44,1.37-1.05,1.74-1.82.28-.6.42-1.47.42-2.64v-.97Z" style="fill: #fff; stroke-width: 0px;"/>
  <path d="M230.78,71.08c-.98.83-1.92,1.42-2.82,1.76s-1.87.51-2.91.51c-1.71,0-3.02-.42-3.94-1.25-.92-.84-1.38-1.9-1.38-3.2,0-.76.17-1.46.52-2.09.35-.63.8-1.13,1.36-1.52.56-.38,1.19-.67,1.9-.86.52-.14,1.3-.27,2.34-.4,2.13-.25,3.7-.56,4.7-.91,0-.36.01-.59.01-.69,0-1.07-.25-1.83-.75-2.27-.67-.6-1.67-.89-3-.89-1.24,0-2.16.22-2.75.65-.59.44-1.03,1.2-1.31,2.31l-2.58-.35c.23-1.1.62-1.99,1.16-2.67s1.31-1.2,2.33-1.57c1.02-.37,2.19-.55,3.53-.55s2.41.16,3.24.47,1.44.71,1.83,1.18.66,1.07.82,1.79c.09.45.13,1.26.13,2.43v3.52c0,2.45.06,4,.17,4.65.11.65.33,1.27.67,1.87h-2.75c-.27-.55-.45-1.19-.53-1.92ZM230.56,65.19c-.96.39-2.39.72-4.31,1-1.08.16-1.85.33-2.3.53s-.8.48-1.04.86c-.24.38-.37.79-.37,1.25,0,.7.27,1.29.8,1.76.53.47,1.31.7,2.34.7s1.92-.22,2.71-.67c.79-.44,1.37-1.05,1.74-1.82.28-.6.42-1.47.42-2.64v-.97Z" style="fill: #fff; stroke-width: 0px;"/>
  <path d="M237.28,73v-15.56h2.37v2.36c.61-1.1,1.17-1.83,1.68-2.18.51-.35,1.08-.53,1.69-.53.89,0,1.79.28,2.71.85l-.91,2.45c-.64-.38-1.29-.57-1.93-.57-.58,0-1.09.17-1.55.52-.46.35-.79.83-.98,1.44-.29.94-.44,1.96-.44,3.08v8.14h-2.64Z" style="fill: #fff; stroke-width: 0px;"/>
  <path d="M257.4,73v-1.96c-.99,1.54-2.44,2.31-4.35,2.31-1.24,0-2.38-.34-3.42-1.03-1.04-.68-1.85-1.64-2.42-2.86-.57-1.23-.86-2.63-.86-4.23s.26-2.96.78-4.23c.52-1.26,1.29-2.23,2.33-2.91s2.19-1.01,3.47-1.01c.94,0,1.77.2,2.5.59.73.39,1.33.91,1.79,1.54v-7.71h2.62v21.47h-2.45ZM249.06,65.24c0,1.99.42,3.48,1.26,4.47s1.83,1.48,2.97,1.48,2.13-.47,2.94-1.41c.8-.94,1.21-2.38,1.21-4.31,0-2.13-.41-3.69-1.23-4.69s-1.83-1.49-3.03-1.49-2.15.48-2.94,1.44-1.18,2.47-1.18,4.53Z" style="fill: #fff; stroke-width: 0px;"/>
  <path d="M274.64,67.99l2.72.34c-.43,1.59-1.23,2.83-2.39,3.71s-2.65,1.32-4.45,1.32c-2.28,0-4.08-.7-5.41-2.1-1.33-1.4-2-3.37-2-5.9s.67-4.65,2.02-6.09,3.1-2.17,5.24-2.17,3.78.71,5.1,2.12,1.98,3.41,1.98,5.98c0,.16,0,.39-.01.7h-11.6c.1,1.71.58,3.02,1.45,3.93s1.95,1.36,3.25,1.36c.97,0,1.79-.25,2.48-.76s1.23-1.32,1.63-2.43ZM265.98,63.73h8.69c-.12-1.31-.45-2.29-1-2.94-.84-1.02-1.93-1.52-3.27-1.52-1.21,0-2.23.41-3.05,1.22-.83.81-1.28,1.89-1.37,3.25Z" style="fill: #fff; stroke-width: 0px;"/>
  <path d="M293.33,73l-5.92-15.56h2.78l3.34,9.32c.36,1.01.69,2.05,1,3.13.23-.82.56-1.81.98-2.96l3.46-9.49h2.71l-5.89,15.56h-2.46Z" style="fill: #fff; stroke-width: 0px;"/>
  <path d="M314.16,71.08c-.98.83-1.92,1.42-2.82,1.76s-1.87.51-2.91.51c-1.71,0-3.02-.42-3.94-1.25-.92-.84-1.38-1.9-1.38-3.2,0-.76.17-1.46.52-2.09.35-.63.8-1.13,1.36-1.52.56-.38,1.19-.67,1.9-.86.52-.14,1.3-.27,2.34-.4,2.13-.25,3.7-.56,4.7-.91,0-.36.01-.59.01-.69,0-1.07-.25-1.83-.75-2.27-.67-.6-1.67-.89-3-.89-1.24,0-2.16.22-2.75.65-.59.44-1.03,1.2-1.31,2.31l-2.58-.35c.23-1.1.62-1.99,1.16-2.67s1.31-1.2,2.33-1.57c1.02-.37,2.19-.55,3.53-.55s2.41.16,3.24.47,1.44.71,1.83,1.18.66,1.07.82,1.79c.09.45.13,1.26.13,2.43v3.52c0,2.45.06,4,.17,4.65.11.65.33,1.27.67,1.87h-2.75c-.27-.55-.45-1.19-.53-1.92ZM313.94,65.19c-.96.39-2.39.72-4.31,1-1.08.16-1.85.33-2.3.53s-.8.48-1.04.86c-.24.38-.37.79-.37,1.25,0,.7.27,1.29.8,1.76.53.47,1.31.7,2.34.7s1.92-.22,2.71-.67c.79-.44,1.37-1.05,1.74-1.82.28-.6.42-1.47.42-2.64v-.97Z" style="fill: #fff; stroke-width: 0px;"/>
  <path d="M320.69,73v-15.56h2.37v2.21c1.14-1.71,2.79-2.56,4.95-2.56.94,0,1.8.17,2.58.51.79.34,1.38.78,1.77,1.33s.66,1.2.82,1.95c.1.49.15,1.34.15,2.56v9.57h-2.64v-9.46c0-1.07-.1-1.88-.31-2.41-.21-.53-.57-.96-1.09-1.27-.52-.32-1.14-.48-1.84-.48-1.12,0-2.09.36-2.91,1.07-.82.71-1.22,2.07-1.22,4.06v8.5h-2.64Z" style="fill: #fff; stroke-width: 0px;"/>
  <path d="M359.48,52.05l-.86,4.06c-.83-.83-2.04-1.25-3.63-1.25s-2.88.57-3.87,1.71c-.56.64-.95,1.45-1.19,2.42h8.06l-.47,2.27h-7.88c0,.22-.01.51-.01.86s0,.7.03,1.07h7.46l-.47,2.27h-6.68c.24,1.04.62,1.87,1.13,2.46.98,1.15,2.25,1.73,3.81,1.73,1.88,0,3.37-.58,4.48-1.73v4.48c-1.27.63-2.75.95-4.44.95-2.85,0-5.2-.98-7.03-2.93-1.25-1.33-2.08-2.98-2.48-4.97h-2.17l.47-2.27h1.44c0-.23-.01-.48-.01-.75,0-.45,0-.84.03-1.19h-1.92l.47-2.27h1.74c.41-1.94,1.23-3.57,2.45-4.88,1.85-1.97,4.27-2.96,7.28-2.96,1.64,0,3.07.3,4.28.89Z" style="fill: #fff; stroke-width: 0px;"/>
  <path d="M372.23,73h-4.12v-15.51c-1.5,1.41-3.28,2.45-5.32,3.12v-3.74c1.07-.35,2.24-1.02,3.5-2,1.26-.98,2.12-2.13,2.59-3.44h3.34v21.56Z" style="fill: #fff; stroke-width: 0px;"/>
  <path d="M378.38,55.64v-3.82h14.08v2.99c-1.16,1.14-2.34,2.78-3.54,4.92s-2.12,4.41-2.75,6.82c-.63,2.41-.94,4.56-.93,6.45h-3.97c.07-2.97.68-6,1.84-9.08,1.16-3.09,2.7-5.84,4.64-8.28h-9.36Z" style="fill: #fff; stroke-width: 0px;"/>
  <path d="M395.12,67.48l4.1-.42c.12.93.46,1.66,1.04,2.21.58.54,1.24.81,1.99.81.86,0,1.59-.35,2.18-1.05s.89-1.75.89-3.16c0-1.32-.3-2.31-.89-2.97-.59-.66-1.36-.99-2.31-.99-1.18,0-2.24.52-3.18,1.57l-3.34-.48,2.11-11.18h10.88v3.85h-7.76l-.64,3.65c.92-.46,1.86-.69,2.81-.69,1.83,0,3.37.66,4.64,1.99s1.9,3.05,1.9,5.17c0,1.77-.51,3.34-1.54,4.73-1.4,1.89-3.33,2.84-5.82,2.84-1.98,0-3.6-.53-4.85-1.6s-2-2.5-2.24-4.29Z" style="fill: #fff; stroke-width: 0px;"/>
  <path d="M412.52,68.88h4.12v2.94c0,1.19-.1,2.13-.31,2.82-.21.69-.59,1.31-1.16,1.85-.57.55-1.3.98-2.18,1.29l-.81-1.7c.83-.27,1.42-.65,1.77-1.13s.54-1.13.56-1.96h-1.99v-4.12Z" style="fill: #fff; stroke-width: 0px;"/>
  <path d="M427.04,51.44c2.08,0,3.71.74,4.88,2.23,1.4,1.76,2.09,4.67,2.09,8.75s-.7,6.98-2.11,8.76c-1.16,1.46-2.78,2.2-4.86,2.2s-3.77-.8-5.05-2.41-1.92-4.47-1.92-8.59.7-6.95,2.11-8.73c1.16-1.46,2.78-2.2,4.86-2.2ZM427.04,54.85c-.5,0-.94.16-1.33.48-.39.32-.69.89-.91,1.71-.28,1.06-.42,2.86-.42,5.38s.13,4.25.38,5.19c.25.94.57,1.57.96,1.88s.83.47,1.33.47.94-.16,1.33-.48c.39-.32.69-.89.91-1.71.28-1.05.42-2.84.42-5.36s-.13-4.25-.38-5.19-.57-1.57-.96-1.89c-.39-.32-.83-.48-1.33-.48Z" style="fill: #fff; stroke-width: 0px;"/>
  <path d="M443.72,51.44c2.08,0,3.71.74,4.88,2.23,1.4,1.76,2.09,4.67,2.09,8.75s-.7,6.98-2.11,8.76c-1.16,1.46-2.78,2.2-4.86,2.2s-3.77-.8-5.05-2.41-1.92-4.47-1.92-8.59.7-6.95,2.11-8.73c1.16-1.46,2.78-2.2,4.86-2.2ZM443.72,54.85c-.5,0-.94.16-1.33.48-.39.32-.69.89-.91,1.71-.28,1.06-.42,2.86-.42,5.38s.13,4.25.38,5.19c.25.94.57,1.57.96,1.88s.83.47,1.33.47.94-.16,1.33-.48c.39-.32.69-.89.91-1.71.28-1.05.42-2.84.42-5.36s-.13-4.25-.38-5.19-.57-1.57-.96-1.89c-.39-.32-.83-.48-1.33-.48Z" style="fill: #fff; stroke-width: 0px;"/>
  <path d="M455.94,67.46l-1.07-10.9v-5.04h4.45v5.04l-1.05,10.9h-2.33ZM455.05,73v-4.12h4.12v4.12h-4.12Z" style="fill: #fff; stroke-width: 0px;"/>
</svg>