<svg fill="none" height="160" viewBox="0 0 576 160" width="576" xmlns="http://www.w3.org/2000/svg"><g fill="#fff"><path d="m573.823 29.5996v100.4004h-20.821v-100.4004z"/><path d="m497.732 131.415c-4.762 0-9.052-.831-12.87-2.493-3.774-1.707-6.739-4.223-8.895-7.547s-3.234-7.457-3.234-12.398c0-4.223.763-7.727 2.291-10.5122 1.527-2.83 3.616-5.121 6.266-6.873 2.651-1.752 5.66-3.0772 9.03-3.9756 3.369-.8984 6.94-1.5273 10.713-1.8867 4.358-.4043 7.862-.8086 10.512-1.2129 2.651-.4043 4.582-1.0107 5.795-1.8193 1.258-.8535 1.887-2.0664 1.887-3.6387v-.3369c0-3.0996-.988-5.5029-2.965-7.21-1.932-1.707-4.672-2.5605-8.221-2.5605-3.728 0-6.716.831-8.962 2.4931-2.201 1.6172-3.661 3.6836-4.38 6.1993l-19.338-1.5498c.988-4.5821 2.92-8.5352 5.795-11.8594 2.875-3.3692 6.581-5.9522 11.118-7.749 4.582-1.8418 9.882-2.7627 15.902-2.7627 4.178 0 8.176.4941 11.994 1.4824 3.819.9883 7.21 2.5156 10.175 4.582 3.01 2.0215 5.391 4.6494 7.143 7.8838s2.627 7.0752 2.627 11.5225v50.8066h-19.877v-10.512h-.54c-1.212 2.381-2.83 4.47-4.851 6.267-2.022 1.752-4.447 3.144-7.277 4.178-2.83.988-6.11 1.482-9.838 1.482zm5.997-14.42c3.054 0 5.75-.606 8.086-1.819 2.381-1.258 4.222-2.92 5.525-4.987 1.348-2.111 2.022-4.469 2.022-7.075v-8.0183c-.629.4043-1.528.7861-2.696 1.1455-1.123.3594-2.381.6738-3.773.9434-1.393.2695-2.785.5166-4.178.7412-1.392.1797-2.65.3594-3.773.539-2.471.3594-4.627.9434-6.469 1.7522-1.842.763-3.279 1.819-4.313 3.167-.988 1.303-1.482 2.942-1.482 4.919 0 2.83 1.033 4.986 3.1 6.468 2.066 1.483 4.716 2.224 7.951 2.224z"/><path d="m414.767 86.4707v43.5293h-20.821v-75.334h20.484v13.4092h.742c1.707-4.4473 4.424-7.9512 8.153-10.5117 3.728-2.5606 8.4-3.8408 14.016-3.8408 5.21 0 9.748 1.1455 13.611 3.4365 3.908 2.291 6.94 5.5478 9.097 9.7705 2.156 4.2226 3.234 9.2764 3.234 15.1611v47.9092h-20.821v-44.2031c0-4.5821-1.191-8.1758-3.572-10.7813-2.381-2.6504-5.66-3.9756-9.838-3.9756-2.785 0-5.255.6289-7.412 1.8868-2.156 1.2128-3.841 2.9648-5.053 5.2558-1.213 2.291-1.82 5.0537-1.82 8.2881z"/><path d="m344.201 159.783c-10.152 0-18.103-2.021-23.853-6.064-5.75-3.998-9.254-8.985-10.512-14.959l19.272-2.561c.584 1.528 1.504 2.943 2.762 4.245 1.258 1.303 2.943 2.336 5.054 3.1 2.111.809 4.694 1.213 7.749 1.213 4.537 0 8.288-1.101 11.253-3.302 2.965-2.156 4.447-5.817 4.447-10.983v-13.814h-.876c-.898 2.067-2.268 4.043-4.11 5.93s-4.2 3.414-7.075 4.582-6.312 1.752-10.31 1.752c-5.66 0-10.804-1.303-15.431-3.908-4.582-2.651-8.265-6.694-11.05-12.129-2.741-5.436-4.111-12.309-4.111-20.6194 0-8.5801 1.393-15.7226 4.178-21.4277 2.83-5.7051 6.559-9.9727 11.186-12.8027 4.627-2.875 9.703-4.3125 15.228-4.3125 4.223 0 7.749.7187 10.579 2.1562 2.875 1.3926 5.211 3.1445 7.008 5.2559 1.797 2.1113 3.145 4.2002 4.043 6.2666h.809v-12.7354h20.551v76.143c0 6.379-1.572 11.724-4.716 16.037-3.145 4.312-7.48 7.547-13.005 9.703-5.526 2.156-11.882 3.234-19.07 3.234zm.405-46.561c5.031 0 8.917-1.865 11.657-5.593 2.785-3.729 4.178-8.8946 4.178-15.4981 0-4.4024-.629-8.2207-1.887-11.4551-1.213-3.2793-2.987-5.8174-5.323-7.6143-2.336-1.8418-5.211-2.7627-8.625-2.7627s-6.312.9434-8.693 2.8301c-2.336 1.8418-4.11 4.4023-5.323 7.6816s-1.819 7.0528-1.819 11.3204c0 4.3125.606 8.0631 1.819 11.2531 1.213 3.144 2.987 5.57 5.323 7.277 2.381 1.707 5.279 2.561 8.693 2.561z"/><path d="m276.668 130v-75.334h20.821v75.334zm10.376-84.9697c-3.099 0-5.75-1.0332-7.951-3.0996s-3.301-4.5596-3.301-7.4795c0-2.92 1.1-5.3907 3.301-7.4121 2.201-2.0664 4.852-3.0996 7.951-3.0996 3.145 0 5.818 1.0332 8.019 3.0996 2.201 2.0214 3.302 4.4921 3.302 7.4121 0 2.9199-1.101 5.4131-3.302 7.4795s-4.874 3.0996-8.019 3.0996z"/><path d="m227.664 131.415c-8.086 0-15.139-1.235-21.158-3.706-5.975-2.471-10.647-6.154-14.016-11.051-3.324-4.896-5.076-10.961-5.256-18.1932h20.485c.269 3.3242 1.258 6.1322 2.965 8.4232 1.707 2.246 3.998 3.93 6.873 5.053s6.176 1.685 9.905 1.685c3.594 0 6.716-.517 9.366-1.55 2.695-1.033 4.762-2.471 6.199-4.312 1.483-1.887 2.224-4.066 2.224-6.536 0-2.2466-.674-4.1333-2.022-5.6606-1.302-1.5274-3.234-2.8301-5.794-3.9082-2.516-1.0781-5.593-2.044-9.232-2.8975l-10.983-2.6953c-8.446-2.0215-15.116-5.2334-20.013-9.6357-4.896-4.4473-7.345-10.377-7.345-17.7891 0-6.0645 1.64-11.3652 4.919-15.9023 3.324-4.5821 7.839-8.1309 13.544-10.6465 5.75-2.5606 12.286-3.8408 19.609-3.8408 7.457 0 13.948 1.2802 19.473 3.8408 5.571 2.5605 9.905 6.1093 13.005 10.6465 3.145 4.5371 4.762 9.7705 4.852 15.7002h-20.417c-.36-3.9083-2.044-6.9629-5.054-9.1641-2.965-2.2012-6.985-3.3018-12.062-3.3018-3.414 0-6.334.4942-8.759 1.4825-2.381.9433-4.201 2.2685-5.458 3.9755-1.258 1.7071-1.887 3.6612-1.887 5.8623 0 2.336.719 4.3125 2.156 5.9297 1.438 1.5723 3.347 2.875 5.728 3.9082 2.426.9883 5.076 1.8194 7.951 2.4932l8.962 2.2236c4.357.9883 8.378 2.3135 12.061 3.9756 3.684 1.6172 6.873 3.6162 9.569 5.9971 2.74 2.3808 4.851 5.1885 6.334 8.4228 1.482 3.1895 2.223 6.8731 2.223 11.0509 0 6.154-1.549 11.5-4.649 16.037-3.055 4.492-7.48 7.974-13.274 10.444-5.795 2.426-12.803 3.639-21.024 3.639z"/><path d="m80 0c4.1505 0 8.2271.31607 12.2072.925452l-1.1444 7.413248c-3.6069-.55226-7.3014-.8387-11.0628-.8387-3.7612 0-7.4555.28641-11.0623.83862l-1.1444-7.413245c3.9799-.609332 8.0564-.925375 12.2067-.925375z"/><path d="m98.9849 2.26619-1.7798 7.28755c7.3099 1.77896 14.1849 4.66606 20.4389 8.47306l3.895-6.411c-6.901-4.20091-14.488-7.38658-22.5541-9.34961z"/><path d="m127.279 15.4591-4.432 6.0507c5.977 4.3861 11.257 9.6664 15.643 15.6437l6.051-4.4324c-4.84-6.5957-10.666-12.4222-17.262-17.262z"/><path d="m148.384 38.4618-6.411 3.8942c3.807 6.2541 6.694 13.1299 8.473 20.4395l7.288-1.7798c-1.963-8.0657-5.149-15.6528-9.35-22.5539z"/><path d="m159.075 67.7934-7.414 1.1444c.553 3.6067.839 7.301.839 11.0622 0 3.7614-.286 7.4559-.839 11.0628l7.414 1.1444c.609-3.9801.925-8.0567.925-12.2072 0-4.1503-.316-8.2267-.925-12.2066z"/><path d="m141.973 117.645c3.807-6.255 6.694-13.13 8.473-20.44l7.288 1.7798c-1.963 8.0662-5.149 15.6532-9.35 22.5542z"/><path d="m138.49 122.847 6.051 4.432c-4.84 6.596-10.666 12.422-17.262 17.262l-4.433-6.051c5.978-4.386 11.258-9.666 15.644-15.643z"/><path d="m117.644 141.973 3.894 6.411c-6.901 4.201-14.488 7.387-22.5537 9.35l-1.7798-7.288c7.3095-1.779 14.1855-4.666 20.4395-8.473z"/><path d="m91.0622 151.661 1.1445 7.414c-3.9799.609-8.0564.925-12.2067.925-4.1505 0-8.2272-.316-12.2073-.925l1.1442-7.413c3.6054.552 7.2997.838 11.0631.838 3.7612 0 7.4555-.286 11.0622-.839z"/><path d="m62.7945 150.448-1.7794 7.286c-6.0589-1.475-11.8477-3.639-17.2785-6.406l-7.5927 1.772-1.7042-7.304 10.2604-2.394 2.4408 1.243c4.9187 2.506 10.1623 4.467 15.6536 5.803z"/><path d="m28.1097 147.273 1.7042 7.304-13.0145 3.036c-8.66079 2.021-16.433718-5.752-14.41286-14.412l3.03673-13.015 7.30383 1.704-3.03675 13.015c-.75782 3.248 2.15705 6.162 5.40485 5.405z"/><path d="m14.2041 125.56-7.30383-1.704 1.77163-7.593c-2.76664-5.431-4.93123-11.22-6.40585-17.2787l7.28586-1.7794c1.33599 5.4911 3.29709 10.7351 5.80279 15.6541l1.2435 2.441z"/><path d="m8.33759 91.0624-7.412228 1.1442c-.609324-3.9799-.925362-8.0563-.925362-12.2066 0-4.1505.316067-8.2271.925446-12.2072l7.413244 1.1444c-.55225 3.607-.83869 7.3014-.83869 11.0628 0 3.7631.28613 7.4572.83759 11.0624z"/><path d="m9.55373 62.795-7.28755-1.7798c1.96302-8.0657 5.1487-15.6528 9.34962-22.5539l6.411 3.8942c-3.807 6.2541-6.6941 13.1299-8.47307 20.4395z"/><path d="m21.5098 37.1531-6.0507-4.4324c4.8398-6.5957 10.6663-12.4221 17.262-17.2619l4.4324 6.0507c-5.9773 4.3861-11.2576 9.6663-15.6437 15.6436z"/><path d="m42.356 18.0266-3.8943-6.4111c6.9011-4.20082 14.4882-7.38645 22.554-9.34944l1.7798 7.28755c-7.3096 1.77899-14.1854 4.66589-20.4395 8.47299z"/><path d="m145 80c0 35.899-29.101 65-65 65-11.3866 0-22.0893-2.928-31.3965-8.072-.8961-.495-1.9417-.658-2.9389-.426l-28.9134 6.747 6.7465-28.914c.2326-.997.0692-2.043-.426-2.939-5.1439-9.307-8.0717-20.0095-8.0717-31.396 0-35.8985 29.1015-65 65-65 35.899 0 65 29.1015 65 65z"/></g></svg>