<?xml version="1.0" encoding="UTF-8"?>
<svg id="Layer_1" data-name="Layer 1" xmlns="http://www.w3.org/2000/svg" xmlns:xlink="http://www.w3.org/1999/xlink" version="1.1" viewBox="0 0 1000 1000">
  <defs>
    <style>
      .cls-1 {
        fill: #000;
      }

      .cls-1, .cls-2, .cls-3 {
        stroke-width: 0px;
      }

      .cls-2 {
        display: none;
        fill: url(#linear-gradient);
      }

      .cls-3 {
        fill: #fff;
        fill-rule: evenodd;
      }
    </style>
    <linearGradient id="linear-gradient" x1="-98.4" y1="1100.9" x2="-98.4" y2="1099.9" gradientTransform="translate(98901 1100901) scale(1000 -1000)" gradientUnits="userSpaceOnUse">
      <stop offset="0" stop-color="#2aabee"/>
      <stop offset="1" stop-color="#229ed9"/>
    </linearGradient>
  </defs>
  <g id="Artboard">
    <circle id="Oval" class="cls-2" cx="500" cy="500" r="500"/>
    <circle id="Oval-2" data-name="Oval" class="cls-1" cx="500" cy="500" r="500"/>
    <path id="Path-3" class="cls-3" d="M226.3,494.7c145.8-63.5,243-105.4,291.6-125.6,138.9-57.8,167.7-67.8,186.5-68.1,4.1,0,13.4,1,19.4,5.8,5.1,4.1,6.5,9.6,7.1,13.5s1.5,12.8.8,19.7c-7.5,79.1-40.1,270.9-56.6,359.5-7,37.5-20.8,50-34.2,51.3-29,2.7-51.1-19.2-79.2-37.6-44-28.8-68.9-46.8-111.6-75-49.4-32.5-17.4-50.4,10.8-79.6,7.4-7.6,135.3-124,137.8-134.6.3-1.3.6-6.2-2.3-8.8s-7.2-1.7-10.4-1c-4.4,1-74.7,47.5-210.9,139.4-20,13.7-38,20.4-54.2,20-17.9-.4-52.2-10.1-77.7-18.4-31.3-10.2-56.2-15.6-54-32.8,1.1-9,13.5-18.2,37.2-27.6Z"/>
  </g>
</svg>