<?xml version="1.0" encoding="UTF-8"?>
<svg id="Layer_1" data-name="Layer 1" xmlns="http://www.w3.org/2000/svg" viewBox="0 0 4620.13 1016.75">
  <g id="Artboard">
    <path d="M500,0C223.86,0,0,223.86,0,500s223.86,500,500,500,500-223.86,500-500S776.14,0,500,0ZM731.76,340.04c-7.52,79.06-40.08,270.92-56.65,359.47-7.01,37.47-20.81,50.03-34.17,51.26-29.04,2.67-51.08-19.19-79.21-37.62-44.01-28.85-68.87-46.8-111.58-74.95-49.37-32.53-17.36-50.41,10.77-79.63,7.36-7.65,135.3-124.01,137.77-134.57.31-1.32.6-6.24-2.33-8.84-2.92-2.6-7.24-1.71-10.35-1-4.41,1-74.71,47.47-210.9,139.4-19.95,13.7-38.03,20.38-54.22,20.03-17.85-.39-52.19-10.09-77.72-18.39-31.31-10.18-56.2-15.56-54.03-32.85,1.13-9,13.53-18.21,37.2-27.62,145.76-63.51,242.96-105.37,291.59-125.6,138.86-57.75,167.71-67.79,186.51-68.12,4.14-.07,13.38.95,19.38,5.81,5.06,4.1,6.45,9.65,7.12,13.54.67,3.89,1.5,12.76.84,19.68Z" style="fill: #fff; fill-rule: evenodd; stroke-width: 0px;"/>
  </g>
  <g id="Artboard-2" data-name="Artboard">
    <g>
      <path d="M1403.13,258h-183.25v-66.15h446.05v66.15h-184.14v536.33h-78.66V258Z" style="fill: #fff; stroke-width: 0px;"/>
      <path d="M1710.63,592.32c1.79,106.37,69.72,150.17,148.39,150.17,56.32,0,90.28-9.83,119.78-22.35l13.41,56.32c-27.71,12.51-75.09,26.82-143.92,26.82-133.19,0-212.75-87.6-212.75-218.11s76.88-233.31,202.91-233.31c141.23,0,178.78,124.25,178.78,203.81,0,16.09-1.79,28.6-2.68,36.65h-303.92ZM1941.25,536c.89-50.06-20.56-127.83-109.05-127.83-79.56,0-114.42,73.3-120.68,127.83h229.73Z" style="fill: #fff; stroke-width: 0px;"/>
      <path d="M2114.66,159.68h78.66v634.66h-78.66V159.68Z" style="fill: #fff; stroke-width: 0px;"/>
      <path d="M2369.41,592.32c1.79,106.37,69.72,150.17,148.39,150.17,56.32,0,90.28-9.83,119.78-22.35l13.41,56.32c-27.71,12.51-75.09,26.82-143.92,26.82-133.19,0-212.75-87.6-212.75-218.11s76.88-233.31,202.91-233.31c141.23,0,178.78,124.25,178.78,203.81,0,16.09-1.79,28.6-2.68,36.65h-303.92ZM2600.03,536c.89-50.06-20.56-127.83-109.05-127.83-79.56,0-114.42,73.3-120.68,127.83h229.73Z" style="fill: #fff; stroke-width: 0px;"/>
      <path d="M3146.19,361.7c-1.79,31.29-3.58,66.15-3.58,118.89v251.18c0,99.22-19.67,160.01-61.68,197.55-42.01,39.33-102.8,51.85-157.32,51.85s-109.05-12.51-143.92-35.76l19.67-59.89c28.6,17.88,73.3,33.97,126.93,33.97,80.45,0,139.45-42.01,139.45-151.07v-48.27h-1.79c-24.13,40.23-70.62,72.41-137.66,72.41-107.27,0-184.14-91.18-184.14-210.96,0-146.6,95.65-229.73,194.87-229.73,75.09,0,116.21,39.33,134.98,75.09h1.79l3.58-65.25h68.83ZM3064.85,532.43c0-13.41-.89-25.03-4.47-35.75-14.3-45.59-52.74-83.13-109.95-83.13-75.09,0-128.72,63.47-128.72,163.58,0,84.92,42.91,155.54,127.83,155.54,48.27,0,92.07-30.39,109.05-80.45,4.47-13.41,6.26-28.6,6.26-42.01v-77.77Z" style="fill: #fff; stroke-width: 0px;"/>
      <path d="M3267.75,496.67c0-50.95-.89-94.75-3.58-134.98h68.83l2.68,84.92h3.58c19.67-58.1,67.04-94.75,119.78-94.75,8.94,0,15.2.89,22.35,2.68v74.19c-8.04-1.79-16.09-2.68-26.82-2.68-55.42,0-94.75,42.01-105.48,101.01-1.79,10.73-3.58,23.24-3.58,36.65v230.62h-77.77v-297.67Z" style="fill: #fff; stroke-width: 0px;"/>
      <path d="M3795.15,794.34l-6.26-54.53h-2.68c-24.13,33.97-70.62,64.36-132.3,64.36-87.6,0-132.3-61.68-132.3-124.25,0-104.58,92.96-161.79,260.12-160.9v-8.94c0-35.76-9.83-100.12-98.33-100.12-40.22,0-82.24,12.51-112.63,32.18l-17.88-51.85c35.76-23.24,87.6-38.44,142.13-38.44,132.3,0,164.48,90.28,164.48,176.99v161.79c0,37.54,1.79,74.19,7.15,103.69h-71.51ZM3783.53,573.55c-85.81-1.79-183.25,13.41-183.25,97.43,0,50.95,33.97,75.09,74.19,75.09,56.31,0,92.07-35.75,104.58-72.4,2.68-8.04,4.47-16.98,4.47-25.03v-75.09Z" style="fill: #fff; stroke-width: 0px;"/>
      <path d="M3986.44,478.8c0-44.7-.89-81.34-3.58-117.1h68.83l3.58,69.72h2.68c24.13-41.12,64.36-79.56,135.87-79.56,59,0,103.69,35.76,122.46,86.71h1.79c13.41-24.13,30.39-42.91,48.27-56.31,25.92-19.67,54.53-30.39,95.65-30.39,57.21,0,142.13,37.54,142.13,187.72v254.76h-76.88v-244.93c0-83.13-30.39-133.19-93.86-133.19-44.69,0-79.56,33.07-92.96,71.51-3.58,10.73-6.26,25.03-6.26,39.33v267.27h-76.88v-259.23c0-68.83-30.39-118.89-90.28-118.89-49.16,0-84.92,39.33-97.43,78.66-4.47,11.62-6.26,25.03-6.26,38.44v261.02h-76.88v-315.54Z" style="fill: #fff; stroke-width: 0px;"/>
    </g>
  </g>
</svg>